<?xml version="1.0" encoding="UTF-8" standalone="no"?>
<!DOCTYPE svg PUBLIC "-//W3C//DTD SVG 1.1//EN"
 "http://www.w3.org/Graphics/SVG/1.1/DTD/svg11.dtd">
<!-- Generated by graphviz version 15.1.0 (0)
 -->
<!-- Title: AsterinasImageLayout Pages: 1 -->
<svg width="744pt" height="384pt"
 viewBox="0.00 0.00 744.00 384.00" xmlns="http://www.w3.org/2000/svg" xmlns:xlink="http://www.w3.org/1999/xlink">
<g id="graph0" class="graph" transform="scale(1 1) rotate(0) translate(15.84 368.19)">
<title>AsterinasImageLayout</title>
<g id="clust1" class="cluster">
<title>cluster_wrong</title>
<path fill="none" stroke="#a44962" stroke-width="1.2" stroke-dasharray="5,2" d="M20,-8C20,-8 352,-8 352,-8 358,-8 364,-14 364,-20 364,-20 364,-332.35 364,-332.35 364,-338.35 358,-344.35 352,-344.35 352,-344.35 20,-344.35 20,-344.35 14,-344.35 8,-338.35 8,-332.35 8,-332.35 8,-20 8,-20 8,-14 14,-8 20,-8"/>
<text xml:space="preserve" text-anchor="middle" x="186" y="-328" font-family="Source Han Sans CN, Noto Sans CJK SC, sans-serif" font-size="13.00" fill="#8b2543">错误做法（v3）：链接后再拼接 64 字节 header</text>
</g>
<g id="clust2" class="cluster">
<title>cluster_right</title>
<path fill="none" stroke="#3e8055" stroke-width="1.2" stroke-dasharray="5,2" d="M384,-8C384,-8 692,-8 692,-8 698,-8 704,-14 704,-20 704,-20 704,-332.35 704,-332.35 704,-338.35 698,-344.35 692,-344.35 692,-344.35 384,-344.35 384,-344.35 378,-344.35 372,-338.35 372,-332.35 372,-332.35 372,-20 372,-20 372,-14 378,-8 384,-8"/>
<text xml:space="preserve" text-anchor="middle" x="538" y="-328" font-family="Source Han Sans CN, Noto Sans CJK SC, sans-serif" font-size="13.00" fill="#265538">正确做法（当前实现）：header 是链接布局的一部分</text>
</g>
<!-- w_hdr&#45;&gt;w_start -->
<g id="edge1" class="edge">
<title>w_hdr&#45;&gt;w_start</title>
<path fill="none" stroke="#475569" stroke-width="1.6" d="M171,-264.13C171,-256.19 171,-246.74 171,-237.93"/>
<polygon fill="#475569" stroke="#475569" stroke-width="1.6" points="173.63,-237.94 171,-230.44 168.38,-237.94 173.63,-237.94"/>
</g>
<!-- w_start&#45;&gt;w_pt -->
<g id="edge2" class="edge">
<title>w_start&#45;&gt;w_pt</title>
<path fill="none" stroke="#475569" stroke-width="1.6" d="M171,-188.73C171,-180.79 171,-171.34 171,-162.53"/>
<polygon fill="#475569" stroke="#475569" stroke-width="1.6" points="173.63,-162.54 171,-155.04 168.38,-162.54 173.63,-162.54"/>
</g>
<!-- w_pt&#45;&gt;w_satp -->
<g id="edge3" class="edge">
<title>w_pt&#45;&gt;w_satp</title>
<path fill="none" stroke="#a44962" stroke-width="2" d="M174.11,-113.27C176.15,-101.1 178.85,-84.92 181.17,-71.08"/>
<polygon fill="#a44962" stroke="#a44962" stroke-width="2" points="183.7,-71.88 182.34,-64.05 178.52,-71.01 183.7,-71.88"/>
<text xml:space="preserve" text-anchor="middle" x="269.09" y="-85.2" font-family="Source Han Sans CN, Noto Sans CJK SC, sans-serif" font-size="11.00" fill="#334155">satp 指向 0x1000，但页表在 0x1040</text>
</g>
<!-- r_hdr&#45;&gt;r_body -->
<g id="edge4" class="edge">
<title>r_hdr&#45;&gt;r_body</title>
<path fill="none" stroke="#475569" stroke-width="1.6" d="M538,-264.13C538,-256.19 538,-246.74 538,-237.93"/>
<polygon fill="#475569" stroke="#475569" stroke-width="1.6" points="540.63,-237.94 538,-230.44 535.38,-237.94 540.63,-237.94"/>
</g>
<!-- r_body&#45;&gt;r_pt -->
<g id="edge5" class="edge">
<title>r_body&#45;&gt;r_pt</title>
<path fill="none" stroke="#475569" stroke-width="1.6" d="M538,-188.73C538,-180.79 538,-171.34 538,-162.53"/>
<polygon fill="#475569" stroke="#475569" stroke-width="1.6" points="540.63,-162.54 538,-155.04 535.38,-162.54 540.63,-162.54"/>
</g>
<!-- r_pt&#45;&gt;r_satp -->
<g id="edge6" class="edge">
<title>r_pt&#45;&gt;r_satp</title>
<path fill="none" stroke="#3e8055" stroke-width="2" d="M535.51,-113.27C533.9,-101.21 531.76,-85.24 529.92,-71.49"/>
<polygon fill="#3e8055" stroke="#3e8055" stroke-width="2" points="532.52,-71.15 528.93,-64.06 527.32,-71.84 532.52,-71.15"/>
<text xml:space="preserve" text-anchor="middle" x="614.82" y="-85.2" font-family="Source Han Sans CN, Noto Sans CJK SC, sans-serif" font-size="11.00" fill="#334155">satp 指向 0x1000，页表精确在此</text>
</g>
<!-- w_hdr -->
<g id="node1" class="node">
<title>w_hdr</title>
<path fill="#f7e3e8" stroke="#a44962" stroke-width="1.4" d="M304.11,-302.85C304.11,-302.85 37.89,-302.85 37.89,-302.85 31.89,-302.85 25.89,-296.85 25.89,-290.85 25.89,-290.85 25.89,-276.45 25.89,-276.45 25.89,-270.45 31.89,-264.45 37.89,-264.45 37.89,-264.45 304.11,-264.45 304.11,-264.45 310.11,-264.45 316.11,-270.45 316.11,-276.45 316.11,-276.45 316.11,-290.85 316.11,-290.85 316.11,-296.85 310.11,-302.85 304.11,-302.85"/>
<text xml:space="preserve" text-anchor="start" x="35.25" y="-285.25" font-family="Source Han Sans CN, Noto Sans CJK SC, sans-serif" font-size="12.00" fill="#172033"> &#160;&#160;&#160;&#160;&#160;&#160;&#160;</text>
<text xml:space="preserve" text-anchor="start" x="59.25" y="-285.25" font-family="Source Han Sans CN, Noto Sans CJK SC, sans-serif" font-weight="bold" font-size="12.00" fill="#172033">文件偏移 0x0000：拼接的 header（64 字节）</text>
<text xml:space="preserve" text-anchor="start" x="59.62" y="-273.25" font-family="Source Han Sans CN, Noto Sans CJK SC, sans-serif" font-size="12.00" fill="#172033"> &#160;&#160;&#160;&#160;&#160;&#160;&#160;</text>
<text xml:space="preserve" text-anchor="start" x="83.62" y="-273.25" font-family="Source Han Sans CN, Noto Sans CJK SC, sans-serif" font-size="10.00" fill="#172033">magic &quot;RSC\x05&quot; · image_size · flags</text>
<text xml:space="preserve" text-anchor="start" x="264.38" y="-273.25" font-family="Source Han Sans CN, Noto Sans CJK SC, sans-serif" font-size="12.00" fill="#172033"> &#160;&#160;&#160;&#160;&#160;</text>
</g>
<!-- w_start -->
<g id="node2" class="node">
<title>w_start</title>
<path fill="#f7e3e8" stroke="#a44962" stroke-width="1.4" d="M294.36,-227.45C294.36,-227.45 47.64,-227.45 47.64,-227.45 41.64,-227.45 35.64,-221.45 35.64,-215.45 35.64,-215.45 35.64,-201.05 35.64,-201.05 35.64,-195.05 41.64,-189.05 47.64,-189.05 47.64,-189.05 294.36,-189.05 294.36,-189.05 300.36,-189.05 306.36,-195.05 306.36,-201.05 306.36,-201.05 306.36,-215.45 306.36,-215.45 306.36,-221.45 300.36,-227.45 294.36,-227.45"/>
<text xml:space="preserve" text-anchor="start" x="45" y="-209.85" font-family="Source Han Sans CN, Noto Sans CJK SC, sans-serif" font-size="12.00" fill="#172033"> &#160;&#160;&#160;&#160;&#160;&#160;&#160;</text>
<text xml:space="preserve" text-anchor="start" x="69" y="-209.85" font-family="Source Han Sans CN, Noto Sans CJK SC, sans-serif" font-weight="bold" font-size="12.00" fill="#172033">文件偏移 0x0040：原有的 _start 入口代码</text>
<text xml:space="preserve" text-anchor="start" x="62.62" y="-197.85" font-family="Source Han Sans CN, Noto Sans CJK SC, sans-serif" font-size="12.00" fill="#172033"> &#160;&#160;&#160;&#160;&#160;&#160;&#160;</text>
<text xml:space="preserve" text-anchor="start" x="86.62" y="-197.85" font-family="Source Han Sans CN, Noto Sans CJK SC, sans-serif" font-style="italic" font-size="10.00" fill="#a44962">链接器以为它在 0x0000，实际在 0x0040</text>
<text xml:space="preserve" text-anchor="start" x="261.38" y="-197.85" font-family="Source Han Sans CN, Noto Sans CJK SC, sans-serif" font-size="12.00" fill="#172033"> &#160;&#160;&#160;&#160;&#160;</text>
</g>
<!-- w_pt -->
<g id="node3" class="node">
<title>w_pt</title>
<path fill="#f7e3e8" stroke="#a44962" stroke-width="1.4" d="M276.74,-152.05C276.74,-152.05 65.26,-152.05 65.26,-152.05 59.26,-152.05 53.27,-146.05 53.27,-140.05 53.27,-140.05 53.27,-125.65 53.27,-125.65 53.27,-119.65 59.27,-113.65 65.27,-113.65 65.27,-113.65 276.74,-113.65 276.74,-113.65 282.74,-113.65 288.74,-119.65 288.74,-125.65 288.74,-125.65 288.74,-140.05 288.74,-140.05 288.74,-146.05 282.74,-152.05 276.74,-152.05"/>
<text xml:space="preserve" text-anchor="start" x="73.88" y="-134.45" font-family="Source Han Sans CN, Noto Sans CJK SC, sans-serif" font-size="12.00" fill="#172033"> &#160;&#160;&#160;&#160;&#160;&#160;&#160;</text>
<text xml:space="preserve" text-anchor="start" x="97.88" y="-134.45" font-family="Source Han Sans CN, Noto Sans CJK SC, sans-serif" font-weight="bold" font-size="12.00" fill="#172033">文件偏移 0x1040：Sv48 根页表</text>
<text xml:space="preserve" text-anchor="start" x="62.62" y="-122.45" font-family="Source Han Sans CN, Noto Sans CJK SC, sans-serif" font-size="12.00" fill="#172033"> &#160;&#160;&#160;&#160;&#160;&#160;&#160;</text>
<text xml:space="preserve" text-anchor="start" x="86.62" y="-122.45" font-family="Source Han Sans CN, Noto Sans CJK SC, sans-serif" font-style="italic" font-size="10.00" fill="#a44962">链接器以为它在 0x1000，实际在 0x1040</text>
<text xml:space="preserve" text-anchor="start" x="261.38" y="-122.45" font-family="Source Han Sans CN, Noto Sans CJK SC, sans-serif" font-size="12.00" fill="#172033"> &#160;&#160;&#160;&#160;&#160;</text>
</g>
<!-- w_satp -->
<g id="node4" class="node">
<title>w_satp</title>
<path fill="#fff4f6" stroke="#d49aaa" stroke-width="1.4" d="M338.24,-60.4C338.24,-60.4 33.76,-60.4 33.76,-60.4 27.76,-60.4 21.76,-54.4 21.76,-48.4 21.76,-48.4 21.76,-34 21.76,-34 21.76,-28 27.76,-22 33.76,-22 33.76,-22 338.24,-22 338.24,-22 344.24,-22 350.24,-28 350.24,-34 350.24,-34 350.24,-48.4 350.24,-48.4 350.24,-54.4 344.24,-60.4 338.24,-60.4"/>
<text xml:space="preserve" text-anchor="start" x="81" y="-42.8" font-family="Source Han Sans CN, Noto Sans CJK SC, sans-serif" font-size="12.00" fill="#172033"> &#160;&#160;&#160;&#160;&#160;&#160;&#160;</text>
<text xml:space="preserve" text-anchor="start" x="105" y="-42.8" font-family="Source Han Sans CN, Noto Sans CJK SC, sans-serif" font-weight="bold" font-size="12.00" fill="#172033">satp 按 4 KiB 对齐 → 读取 0x1000</text>
<text xml:space="preserve" text-anchor="start" x="31.12" y="-30.8" font-family="Source Han Sans CN, Noto Sans CJK SC, sans-serif" font-size="12.00" fill="#172033"> &#160;&#160;&#160;&#160;&#160;&#160;&#160;</text>
<text xml:space="preserve" text-anchor="start" x="55.12" y="-30.8" font-family="Source Han Sans CN, Noto Sans CJK SC, sans-serif" font-size="10.00" fill="#a44962">实际页表在 0x1040，差 64 字节 → 读到的是上一页的尾部垃圾</text>
<text xml:space="preserve" text-anchor="start" x="322.88" y="-30.8" font-family="Source Han Sans CN, Noto Sans CJK SC, sans-serif" font-size="12.00" fill="#172033"> &#160;&#160;&#160;&#160;&#160;</text>
</g>
<!-- r_hdr -->
<g id="node5" class="node">
<title>r_hdr</title>
<path fill="#e2f4e8" stroke="#3e8055" stroke-width="1.4" d="M675.24,-302.85C675.24,-302.85 400.76,-302.85 400.76,-302.85 394.76,-302.85 388.76,-296.85 388.76,-290.85 388.76,-290.85 388.76,-276.45 388.76,-276.45 388.76,-270.45 394.76,-264.45 400.76,-264.45 400.76,-264.45 675.24,-264.45 675.24,-264.45 681.24,-264.45 687.24,-270.45 687.24,-276.45 687.24,-276.45 687.24,-290.85 687.24,-290.85 687.24,-296.85 681.24,-302.85 675.24,-302.85"/>
<text xml:space="preserve" text-anchor="start" x="398.12" y="-285.25" font-family="Source Han Sans CN, Noto Sans CJK SC, sans-serif" font-size="12.00" fill="#172033"> &#160;&#160;&#160;&#160;&#160;&#160;&#160;</text>
<text xml:space="preserve" text-anchor="start" x="422.12" y="-285.25" font-family="Source Han Sans CN, Noto Sans CJK SC, sans-serif" font-weight="bold" font-size="12.00" fill="#172033">文件偏移 0x0000：_start = header（64 字节）</text>
<text xml:space="preserve" text-anchor="start" x="417.25" y="-273.25" font-family="Source Han Sans CN, Noto Sans CJK SC, sans-serif" font-size="12.00" fill="#172033"> &#160;&#160;&#160;&#160;&#160;&#160;&#160;</text>
<text xml:space="preserve" text-anchor="start" x="441.25" y="-273.25" font-family="Source Han Sans CN, Noto Sans CJK SC, sans-serif" font-size="10.00" fill="#172033">jal x0,+0x40 · magic · image_size · flags</text>
<text xml:space="preserve" text-anchor="start" x="640.75" y="-273.25" font-family="Source Han Sans CN, Noto Sans CJK SC, sans-serif" font-size="12.00" fill="#172033"> &#160;&#160;&#160;&#160;&#160;</text>
</g>
<!-- r_body -->
<g id="node6" class="node">
<title>r_body</title>
<path fill="#e2f4e8" stroke="#3e8055" stroke-width="1.4" d="M644.86,-227.45C644.86,-227.45 431.14,-227.45 431.14,-227.45 425.14,-227.45 419.14,-221.45 419.14,-215.45 419.14,-215.45 419.14,-201.05 419.14,-201.05 419.14,-195.05 425.14,-189.05 431.14,-189.05 431.14,-189.05 644.86,-189.05 644.86,-189.05 650.86,-189.05 656.86,-195.05 656.86,-201.05 656.86,-201.05 656.86,-215.45 656.86,-215.45 656.86,-221.45 650.86,-227.45 644.86,-227.45"/>
<text xml:space="preserve" text-anchor="start" x="428.5" y="-209.85" font-family="Source Han Sans CN, Noto Sans CJK SC, sans-serif" font-size="12.00" fill="#172033"> &#160;&#160;&#160;&#160;&#160;&#160;&#160;</text>
<text xml:space="preserve" text-anchor="start" x="452.5" y="-209.85" font-family="Source Han Sans CN, Noto Sans CJK SC, sans-serif" font-weight="bold" font-size="12.00" fill="#172033">文件偏移 0x0040：bsp_boot_body</text>
<text xml:space="preserve" text-anchor="start" x="438.25" y="-197.85" font-family="Source Han Sans CN, Noto Sans CJK SC, sans-serif" font-size="12.00" fill="#172033"> &#160;&#160;&#160;&#160;&#160;&#160;&#160;</text>
<text xml:space="preserve" text-anchor="start" x="462.25" y="-197.85" font-family="Source Han Sans CN, Noto Sans CJK SC, sans-serif" font-size="10.00" fill="#172033">构造页表 · 写 satp · 切换高半地址</text>
<text xml:space="preserve" text-anchor="start" x="619.75" y="-197.85" font-family="Source Han Sans CN, Noto Sans CJK SC, sans-serif" font-size="12.00" fill="#172033"> &#160;&#160;&#160;&#160;&#160;</text>
</g>
<!-- r_pt -->
<g id="node7" class="node">
<title>r_pt</title>
<path fill="#e2f4e8" stroke="#3e8055" stroke-width="1.4" d="M677.86,-152.05C677.86,-152.05 398.14,-152.05 398.14,-152.05 392.14,-152.05 386.14,-146.05 386.14,-140.05 386.14,-140.05 386.14,-125.65 386.14,-125.65 386.14,-119.65 392.14,-113.65 398.14,-113.65 398.14,-113.65 677.86,-113.65 677.86,-113.65 683.86,-113.65 689.86,-119.65 689.86,-125.65 689.86,-125.65 689.86,-140.05 689.86,-140.05 689.86,-146.05 683.86,-152.05 677.86,-152.05"/>
<text xml:space="preserve" text-anchor="start" x="395.5" y="-134.45" font-family="Source Han Sans CN, Noto Sans CJK SC, sans-serif" font-size="12.00" fill="#172033"> &#160;&#160;&#160;&#160;&#160;&#160;&#160;</text>
<text xml:space="preserve" text-anchor="start" x="419.5" y="-134.45" font-family="Source Han Sans CN, Noto Sans CJK SC, sans-serif" font-weight="bold" font-size="12.00" fill="#172033">文件偏移 0x1000：Sv48 根页表（balign 4096）</text>
<text xml:space="preserve" text-anchor="start" x="468.62" y="-122.45" font-family="Source Han Sans CN, Noto Sans CJK SC, sans-serif" font-size="12.00" fill="#172033"> &#160;&#160;&#160;&#160;&#160;&#160;&#160;</text>
<text xml:space="preserve" text-anchor="start" x="492.62" y="-122.45" font-family="Source Han Sans CN, Noto Sans CJK SC, sans-serif" font-size="10.00" fill="#265538">链接器保证 4 KiB 对齐</text>
<text xml:space="preserve" text-anchor="start" x="589.38" y="-122.45" font-family="Source Han Sans CN, Noto Sans CJK SC, sans-serif" font-size="12.00" fill="#172033"> &#160;&#160;&#160;&#160;&#160;</text>
</g>
<!-- r_satp -->
<g id="node8" class="node">
<title>r_satp</title>
<path fill="#f2faf4" stroke="#86b795" stroke-width="1.4" d="M628.36,-60.4C628.36,-60.4 423.64,-60.4 423.64,-60.4 417.64,-60.4 411.64,-54.4 411.64,-48.4 411.64,-48.4 411.64,-34 411.64,-34 411.64,-28 417.64,-22 423.64,-22 423.64,-22 628.36,-22 628.36,-22 634.36,-22 640.36,-28 640.36,-34 640.36,-34 640.36,-48.4 640.36,-48.4 640.36,-54.4 634.36,-60.4 628.36,-60.4"/>
<text xml:space="preserve" text-anchor="start" x="421" y="-42.8" font-family="Source Han Sans CN, Noto Sans CJK SC, sans-serif" font-size="12.00" fill="#172033"> &#160;&#160;&#160;&#160;&#160;&#160;&#160;</text>
<text xml:space="preserve" text-anchor="start" x="445" y="-42.8" font-family="Source Han Sans CN, Noto Sans CJK SC, sans-serif" font-weight="bold" font-size="12.00" fill="#172033">satp 按 4 KiB 对齐 → 读取 0x1000</text>
<text xml:space="preserve" text-anchor="start" x="446.88" y="-30.8" font-family="Source Han Sans CN, Noto Sans CJK SC, sans-serif" font-size="12.00" fill="#172033"> &#160;&#160;&#160;&#160;&#160;&#160;&#160;</text>
<text xml:space="preserve" text-anchor="start" x="470.88" y="-30.8" font-family="Source Han Sans CN, Noto Sans CJK SC, sans-serif" font-size="10.00" fill="#265538">页表精确在 0x1000 → 正确</text>
<text xml:space="preserve" text-anchor="start" x="587.12" y="-30.8" font-family="Source Han Sans CN, Noto Sans CJK SC, sans-serif" font-size="12.00" fill="#172033"> &#160;&#160;&#160;&#160;&#160;</text>
</g>
</g>
</svg>
