<?xml version="1.0" encoding="UTF-8" standalone="no"?>
<!DOCTYPE svg PUBLIC "-//W3C//DTD SVG 1.1//EN"
 "http://www.w3.org/Graphics/SVG/1.1/DTD/svg11.dtd">
<!-- Generated by graphviz version 15.1.0 (0)
 -->
<!-- Title: AsterinasBootFlow Pages: 1 -->
<svg width="746pt" height="1087pt"
 viewBox="0.00 0.00 746.00 1087.00" xmlns="http://www.w3.org/2000/svg" xmlns:xlink="http://www.w3.org/1999/xlink">
<g id="graph0" class="graph" transform="scale(1 1) rotate(0) translate(16.56 1070.16)">
<title>AsterinasBootFlow</title>
<g id="clust1" class="cluster">
<title>cluster_satp_gate</title>
<path fill="none" stroke="#8b5cf6" stroke-width="1.4" stroke-dasharray="5,2" d="M20,-562.67C20,-562.67 315,-562.67 315,-562.67 321,-562.67 327,-568.67 327,-574.67 327,-574.67 327,-728.45 327,-728.45 327,-734.45 321,-740.45 315,-740.45 315,-740.45 20,-740.45 20,-740.45 14,-740.45 8,-734.45 8,-728.45 8,-728.45 8,-574.67 8,-574.67 8,-568.67 14,-562.67 20,-562.67"/>
<text xml:space="preserve" text-anchor="middle" x="167.5" y="-725.52" font-family="Source Han Sans CN, Noto Sans CJK SC, sans-serif" font-size="11.50" fill="#6d28d9">「satp 单向门」：写完 satp 后，所有地址立即变为虚拟地址</text>
<text xml:space="preserve" text-anchor="middle" x="167.5" y="-708.27" font-family="Source Han Sans CN, Noto Sans CJK SC, sans-serif" font-size="11.50" fill="#6d28d9">如果页表有错，连 SBI 控制台输出都不可能——CPU 只会静默</text>
</g>
<!-- phys_start&#45;&gt;jal_header -->
<g id="edge1" class="edge">
<title>phys_start&#45;&gt;jal_header</title>
<path fill="none" stroke="#475569" stroke-width="1.6" d="M210,-1000.84C210,-992.43 210,-983.06 210,-974.51"/>
<polygon fill="#475569" stroke="#475569" stroke-width="1.6" points="212.63,-974.54 210,-967.04 207.38,-974.54 212.63,-974.54"/>
</g>
<!-- jal_header&#45;&gt;save_regs -->
<g id="edge2" class="edge">
<title>jal_header&#45;&gt;save_regs</title>
<path fill="none" stroke="#475569" stroke-width="1.6" d="M210,-926.69C210,-918.79 210,-909.36 210,-900.61"/>
<polygon fill="#475569" stroke="#475569" stroke-width="1.6" points="212.63,-900.71 210,-893.21 207.38,-900.71 212.63,-900.71"/>
</g>
<!-- save_regs&#45;&gt;build_pt -->
<g id="edge3" class="edge">
<title>save_regs&#45;&gt;build_pt</title>
<path fill="none" stroke="#475569" stroke-width="1.6" d="M210,-852.81C210,-845.03 210,-835.68 210,-826.7"/>
<polygon fill="#475569" stroke="#475569" stroke-width="1.6" points="212.63,-826.74 210,-819.24 207.38,-826.74 212.63,-826.74"/>
</g>
<!-- build_pt&#45;&gt;write_satp -->
<g id="edge4" class="edge">
<title>build_pt&#45;&gt;write_satp</title>
<path fill="none" stroke="#475569" stroke-width="1.6" d="M210,-767.03C210,-746.69 210,-717.47 210,-696.12"/>
<polygon fill="#475569" stroke="#475569" stroke-width="1.6" points="212.63,-696.27 210,-688.77 207.38,-696.27 212.63,-696.27"/>
</g>
<!-- write_satp&#45;&gt;check_satp -->
<g id="edge5" class="edge">
<title>write_satp&#45;&gt;check_satp</title>
<path fill="none" stroke="#475569" stroke-width="1.6" d="M266.99,-648.38C310.77,-634.49 371.65,-615.17 419.48,-599.99"/>
<polygon fill="#475569" stroke="#475569" stroke-width="1.6" points="420.2,-602.52 426.56,-597.75 418.62,-597.51 420.2,-602.52"/>
</g>
<!-- write_satp&#45;&gt;gate_marker -->
<!-- check_satp&#45;&gt;sv48_ok -->
<g id="edge6" class="edge">
<title>check_satp&#45;&gt;sv48_ok</title>
<path fill="none" stroke="#475569" stroke-width="1.6" d="M470.7,-543.39C458.08,-527.46 442.84,-508.24 430.92,-493.21"/>
<polygon fill="#475569" stroke="#475569" stroke-width="1.6" points="433.24,-491.91 426.52,-487.66 429.12,-495.17 433.24,-491.91"/>
<text xml:space="preserve" text-anchor="middle" x="455.73" y="-510.09" font-family="Source Han Sans CN, Noto Sans CJK SC, sans-serif" font-size="10.50" fill="#334155">是</text>
</g>
<!-- check_satp&#45;&gt;try_sv39 -->
<g id="edge7" class="edge">
<title>check_satp&#45;&gt;try_sv39</title>
<path fill="none" stroke="#475569" stroke-width="1.6" d="M513.77,-541.96C522.62,-526.83 533.06,-508.99 541.47,-494.63"/>
<polygon fill="#475569" stroke="#475569" stroke-width="1.6" points="543.66,-496.09 545.18,-488.29 539.13,-493.43 543.66,-496.09"/>
<text xml:space="preserve" text-anchor="middle" x="540.43" y="-510.09" font-family="Source Han Sans CN, Noto Sans CJK SC, sans-serif" font-size="10.50" fill="#334155">否</text>
</g>
<!-- sv48_ok&#45;&gt;flush_tlb -->
<g id="edge11" class="edge">
<title>sv48_ok&#45;&gt;flush_tlb</title>
<path fill="none" stroke="#475569" stroke-width="1.6" d="M410.47,-448.48C409.42,-413.95 407.1,-337.1 405.84,-295.59"/>
<polygon fill="#475569" stroke="#475569" stroke-width="1.6" points="408.47,-295.68 405.62,-288.27 403.22,-295.84 408.47,-295.68"/>
</g>
<!-- try_sv39&#45;&gt;check_sv39 -->
<g id="edge8" class="edge">
<title>try_sv39&#45;&gt;check_sv39</title>
<path fill="none" stroke="#475569" stroke-width="1.6" d="M557.79,-448.22C558.13,-440.5 558.55,-431.08 558.97,-421.62"/>
<polygon fill="#475569" stroke="#475569" stroke-width="1.6" points="561.58,-421.84 559.29,-414.23 556.34,-421.61 561.58,-421.84"/>
</g>
<!-- check_sv39&#45;&gt;dead -->
<g id="edge10" class="edge">
<title>check_sv39&#45;&gt;dead</title>
<path fill="none" stroke="#475569" stroke-width="1.6" d="M575.7,-341.86C582.69,-326.76 590.94,-308.92 597.6,-294.51"/>
<polygon fill="#475569" stroke="#475569" stroke-width="1.6" points="599.94,-295.72 600.7,-287.81 595.17,-293.51 599.94,-295.72"/>
<text xml:space="preserve" text-anchor="middle" x="598" y="-309.71" font-family="Source Han Sans CN, Noto Sans CJK SC, sans-serif" font-size="10.50" fill="#334155">否</text>
</g>
<!-- check_sv39&#45;&gt;flush_tlb -->
<g id="edge9" class="edge">
<title>check_sv39&#45;&gt;flush_tlb</title>
<path fill="none" stroke="#475569" stroke-width="1.6" d="M524.82,-349.08C499.15,-331.65 464.91,-308.4 439.61,-291.21"/>
<polygon fill="#475569" stroke="#475569" stroke-width="1.6" points="441.41,-289.26 433.73,-287.22 438.46,-293.61 441.41,-289.26"/>
<text xml:space="preserve" text-anchor="middle" x="483.57" y="-309.71" font-family="Source Han Sans CN, Noto Sans CJK SC, sans-serif" font-size="10.50" fill="#334155">是</text>
</g>
<!-- flush_tlb&#45;&gt;high_half -->
<g id="edge12" class="edge">
<title>flush_tlb&#45;&gt;high_half</title>
<path fill="none" stroke="#475569" stroke-width="1.6" d="M405,-247.63C405,-239.85 405,-230.5 405,-221.52"/>
<polygon fill="#475569" stroke="#475569" stroke-width="1.6" points="407.63,-221.56 405,-214.06 402.38,-221.56 407.63,-221.56"/>
</g>
<!-- high_half&#45;&gt;init_gp -->
<g id="edge13" class="edge">
<title>high_half&#45;&gt;init_gp</title>
<path fill="none" stroke="#475569" stroke-width="1.6" d="M405,-161.66C405,-153.45 405,-144.21 405,-135.75"/>
<polygon fill="#475569" stroke="#475569" stroke-width="1.6" points="407.63,-135.87 405,-128.37 402.38,-135.87 407.63,-135.87"/>
</g>
<!-- init_gp&#45;&gt;jump_rust -->
<g id="edge14" class="edge">
<title>init_gp&#45;&gt;jump_rust</title>
<path fill="none" stroke="#475569" stroke-width="1.6" d="M405,-88.71C405,-80.95 405,-71.54 405,-62.43"/>
<polygon fill="#475569" stroke="#475569" stroke-width="1.6" points="407.63,-62.68 405,-55.18 402.38,-62.68 407.63,-62.68"/>
</g>
<!-- phys_start -->
<g id="node1" class="node">
<title>phys_start</title>
<ellipse fill="#fff0c9" stroke="#a36b10" stroke-width="1.4" cx="210" cy="-1027.46" rx="138.39" ry="26.13"/>
<text xml:space="preserve" text-anchor="start" x="165" y="-1029.06" font-family="Source Han Sans CN, Noto Sans CJK SC, sans-serif" font-size="12.00" fill="#172033"> &#160;&#160;&#160;&#160;&#160;</text>
<text xml:space="preserve" text-anchor="start" x="183" y="-1029.06" font-family="Source Han Sans CN, Noto Sans CJK SC, sans-serif" font-weight="bold" font-size="12.00" fill="#172033">物理地址阶段</text>
<text xml:space="preserve" text-anchor="start" x="121.5" y="-1017.06" font-family="Source Han Sans CN, Noto Sans CJK SC, sans-serif" font-size="12.00" fill="#172033"> &#160;&#160;&#160;&#160;&#160;</text>
<text xml:space="preserve" text-anchor="start" x="139.5" y="-1017.06" font-family="Source Han Sans CN, Noto Sans CJK SC, sans-serif" font-size="10.00" fill="#172033">U&#45;Boot booti 跳转到 0x80200000</text>
<text xml:space="preserve" text-anchor="start" x="286.5" y="-1017.06" font-family="Source Han Sans CN, Noto Sans CJK SC, sans-serif" font-size="12.00" fill="#172033"> &#160;&#160;&#160;</text>
</g>
<!-- jal_header -->
<g id="node2" class="node">
<title>jal_header</title>
<path fill="#dceeff" stroke="#2f6fa3" stroke-width="1.4" d="M281.99,-964.33C281.99,-964.33 138.01,-964.33 138.01,-964.33 132.01,-964.33 126.02,-958.33 126.02,-952.33 126.02,-952.33 126.02,-939.37 126.02,-939.37 126.02,-933.37 132.01,-927.37 138.01,-927.37 138.01,-927.37 281.99,-927.37 281.99,-927.37 287.99,-927.37 293.99,-933.37 293.99,-939.37 293.99,-939.37 293.99,-952.33 293.99,-952.33 293.99,-958.33 287.99,-964.33 281.99,-964.33"/>
<text xml:space="preserve" text-anchor="start" x="142.12" y="-947.45" font-family="Source Han Sans CN, Noto Sans CJK SC, sans-serif" font-size="12.00" fill="#172033"> &#160;&#160;&#160;&#160;&#160;</text>
<text xml:space="preserve" text-anchor="start" x="160.12" y="-947.45" font-family="Source Han Sans CN, Noto Sans CJK SC, sans-serif" font-weight="bold" font-size="12.00" fill="#172033">_start：jal x0, +0x40</text>
<text xml:space="preserve" text-anchor="start" x="135.38" y="-935.45" font-family="Source Han Sans CN, Noto Sans CJK SC, sans-serif" font-size="12.00" fill="#172033"> &#160;&#160;&#160;&#160;&#160;</text>
<text xml:space="preserve" text-anchor="start" x="153.38" y="-935.45" font-family="Source Han Sans CN, Noto Sans CJK SC, sans-serif" font-size="10.00" fill="#172033">跳过 64 字节 Image header</text>
<text xml:space="preserve" text-anchor="start" x="272.62" y="-935.45" font-family="Source Han Sans CN, Noto Sans CJK SC, sans-serif" font-size="12.00" fill="#172033"> &#160;&#160;&#160;</text>
</g>
<!-- save_regs -->
<g id="node3" class="node">
<title>save_regs</title>
<path fill="#dceeff" stroke="#2f6fa3" stroke-width="1.4" d="M320.24,-890.37C320.24,-890.37 99.76,-890.37 99.76,-890.37 93.76,-890.37 87.77,-884.37 87.77,-878.37 87.77,-878.37 87.77,-865.41 87.77,-865.41 87.77,-859.41 93.77,-853.41 99.77,-853.41 99.77,-853.41 320.24,-853.41 320.24,-853.41 326.24,-853.41 332.24,-859.41 332.24,-865.41 332.24,-865.41 332.24,-878.37 332.24,-878.37 332.24,-884.37 326.24,-890.37 320.24,-890.37"/>
<text xml:space="preserve" text-anchor="start" x="97.12" y="-873.49" font-family="Source Han Sans CN, Noto Sans CJK SC, sans-serif" font-size="12.00" fill="#172033"> &#160;&#160;&#160;&#160;&#160;</text>
<text xml:space="preserve" text-anchor="start" x="115.12" y="-873.49" font-family="Source Han Sans CN, Noto Sans CJK SC, sans-serif" font-weight="bold" font-size="12.00" fill="#172033">保存 a0（hart ID）与 a1（DTB 指针）</text>
<text xml:space="preserve" text-anchor="start" x="121.88" y="-861.49" font-family="Source Han Sans CN, Noto Sans CJK SC, sans-serif" font-size="12.00" fill="#172033"> &#160;&#160;&#160;&#160;&#160;</text>
<text xml:space="preserve" text-anchor="start" x="139.88" y="-861.49" font-family="Source Han Sans CN, Noto Sans CJK SC, sans-serif" font-size="10.00" fill="#172033">U&#45;Boot 传的参数，Rust 入口需要</text>
<text xml:space="preserve" text-anchor="start" x="286.12" y="-861.49" font-family="Source Han Sans CN, Noto Sans CJK SC, sans-serif" font-size="12.00" fill="#172033"> &#160;&#160;&#160;</text>
</g>
<!-- build_pt -->
<g id="node4" class="node">
<title>build_pt</title>
<path fill="#dceeff" stroke="#2f6fa3" stroke-width="1.4" d="M346.86,-816.41C346.86,-816.41 73.14,-816.41 73.14,-816.41 67.14,-816.41 61.14,-810.41 61.14,-804.41 61.14,-804.41 61.14,-779.45 61.14,-779.45 61.14,-773.45 67.14,-767.45 73.14,-767.45 73.14,-767.45 346.86,-767.45 346.86,-767.45 352.86,-767.45 358.86,-773.45 358.86,-779.45 358.86,-779.45 358.86,-804.41 358.86,-804.41 358.86,-810.41 352.86,-816.41 346.86,-816.41"/>
<text xml:space="preserve" text-anchor="start" x="148.12" y="-799.53" font-family="Source Han Sans CN, Noto Sans CJK SC, sans-serif" font-size="12.00" fill="#172033"> &#160;&#160;&#160;&#160;&#160;</text>
<text xml:space="preserve" text-anchor="start" x="166.12" y="-799.53" font-family="Source Han Sans CN, Noto Sans CJK SC, sans-serif" font-weight="bold" font-size="12.00" fill="#172033">构造 Sv48 早期页表</text>
<text xml:space="preserve" text-anchor="start" x="70.5" y="-787.53" font-family="Source Han Sans CN, Noto Sans CJK SC, sans-serif" font-size="12.00" fill="#172033"> &#160;&#160;&#160;&#160;&#160;</text>
<text xml:space="preserve" text-anchor="start" x="88.5" y="-787.53" font-family="Source Han Sans CN, Noto Sans CJK SC, sans-serif" font-size="10.00" fill="#172033">identity map（0~512 GiB）+ high&#45;half map（0xffff_ff...）</text>
<text xml:space="preserve" text-anchor="start" x="132" y="-775.53" font-family="Source Han Sans CN, Noto Sans CJK SC, sans-serif" font-size="12.00" fill="#172033"> &#160;&#160;&#160;&#160;&#160;</text>
<text xml:space="preserve" text-anchor="start" x="150" y="-775.53" font-family="Source Han Sans CN, Noto Sans CJK SC, sans-serif" font-size="10.00" fill="#172033">用 1 GiB 巨页覆盖内核代码段</text>
<text xml:space="preserve" text-anchor="start" x="276" y="-775.53" font-family="Source Han Sans CN, Noto Sans CJK SC, sans-serif" font-size="12.00" fill="#172033"> &#160;&#160;&#160;</text>
</g>
<!-- write_satp -->
<g id="node5" class="node">
<title>write_satp</title>
<path fill="#e2f4e8" stroke="#3e8055" stroke-width="1.4" d="M302.61,-685.95C302.61,-685.95 117.39,-685.95 117.39,-685.95 111.39,-685.95 105.39,-679.95 105.39,-673.95 105.39,-673.95 105.39,-660.99 105.39,-660.99 105.39,-654.99 111.39,-648.99 117.39,-648.99 117.39,-648.99 302.61,-648.99 302.61,-648.99 308.61,-648.99 314.61,-654.99 314.61,-660.99 314.61,-660.99 314.61,-673.95 314.61,-673.95 314.61,-679.95 308.61,-685.95 302.61,-685.95"/>
<text xml:space="preserve" text-anchor="start" x="163.5" y="-669.07" font-family="Source Han Sans CN, Noto Sans CJK SC, sans-serif" font-size="12.00" fill="#172033"> &#160;&#160;&#160;&#160;&#160;</text>
<text xml:space="preserve" text-anchor="start" x="181.5" y="-669.07" font-family="Source Han Sans CN, Noto Sans CJK SC, sans-serif" font-weight="bold" font-size="12.00" fill="#172033">csrw satp, t0</text>
<text xml:space="preserve" text-anchor="start" x="114.75" y="-657.07" font-family="Source Han Sans CN, Noto Sans CJK SC, sans-serif" font-size="12.00" fill="#172033"> &#160;&#160;&#160;&#160;&#160;</text>
<text xml:space="preserve" text-anchor="start" x="132.75" y="-657.07" font-family="Source Han Sans CN, Noto Sans CJK SC, sans-serif" font-size="10.00" fill="#172033">写入 Sv48 根页表物理地址 + mode=9</text>
<text xml:space="preserve" text-anchor="start" x="293.25" y="-657.07" font-family="Source Han Sans CN, Noto Sans CJK SC, sans-serif" font-size="12.00" fill="#172033"> &#160;&#160;&#160;</text>
</g>
<!-- check_satp -->
<g id="node6" class="node">
<title>check_satp</title>
<path fill="#fff0c9" stroke="#a36b10" stroke-width="1.4" d="M483.32,-609.22C483.32,-609.22 350.71,-577.8 350.71,-577.8 344.87,-576.41 344.87,-573.65 350.71,-572.26 350.71,-572.26 483.32,-540.84 483.32,-540.84 489.16,-539.45 500.84,-539.45 506.68,-540.84 506.68,-540.84 639.29,-572.26 639.29,-572.26 645.13,-573.65 645.13,-576.41 639.29,-577.8 639.29,-577.8 506.68,-609.22 506.68,-609.22 500.84,-610.61 489.16,-610.61 483.32,-609.22"/>
<text xml:space="preserve" text-anchor="start" x="451.12" y="-576.63" font-family="Source Han Sans CN, Noto Sans CJK SC, sans-serif" font-size="12.00" fill="#172033"> &#160;&#160;&#160;&#160;&#160;</text>
<text xml:space="preserve" text-anchor="start" x="469.12" y="-576.63" font-family="Source Han Sans CN, Noto Sans CJK SC, sans-serif" font-weight="bold" font-size="12.00" fill="#172033">csrr t1, satp</text>
<text xml:space="preserve" text-anchor="start" x="426.38" y="-564.63" font-family="Source Han Sans CN, Noto Sans CJK SC, sans-serif" font-size="12.00" fill="#172033"> &#160;&#160;&#160;&#160;&#160;</text>
<text xml:space="preserve" text-anchor="start" x="444.38" y="-564.63" font-family="Source Han Sans CN, Noto Sans CJK SC, sans-serif" font-size="10.00" fill="#172033">读回的值等于写入的值？</text>
<text xml:space="preserve" text-anchor="start" x="551.62" y="-564.63" font-family="Source Han Sans CN, Noto Sans CJK SC, sans-serif" font-size="12.00" fill="#172033"> &#160;&#160;&#160;</text>
</g>
<!-- sv48_ok -->
<g id="node7" class="node">
<title>sv48_ok</title>
<path fill="#e2f4e8" stroke="#3e8055" stroke-width="1.4" d="M453.36,-485.09C453.36,-485.09 368.64,-485.09 368.64,-485.09 362.64,-485.09 356.64,-479.09 356.64,-473.09 356.64,-473.09 356.64,-461.09 356.64,-461.09 356.64,-455.09 362.64,-449.09 368.64,-449.09 368.64,-449.09 453.36,-449.09 453.36,-449.09 459.36,-449.09 465.36,-455.09 465.36,-461.09 465.36,-461.09 465.36,-473.09 465.36,-473.09 465.36,-479.09 459.36,-485.09 453.36,-485.09"/>
<text xml:space="preserve" text-anchor="middle" x="411" y="-464.69" font-family="Source Han Sans CN, Noto Sans CJK SC, sans-serif" font-size="12.00" fill="#172033">Sv48 被硬件接受</text>
</g>
<!-- try_sv39 -->
<g id="node8" class="node">
<title>try_sv39</title>
<path fill="#f7e3e8" stroke="#a44962" stroke-width="1.4" d="M604.61,-485.57C604.61,-485.57 509.39,-485.57 509.39,-485.57 503.39,-485.57 497.39,-479.57 497.39,-473.57 497.39,-473.57 497.39,-460.61 497.39,-460.61 497.39,-454.61 503.39,-448.61 509.39,-448.61 509.39,-448.61 604.61,-448.61 604.61,-448.61 610.61,-448.61 616.61,-454.61 616.61,-460.61 616.61,-460.61 616.61,-473.57 616.61,-473.57 616.61,-479.57 610.61,-485.57 604.61,-485.57"/>
<text xml:space="preserve" text-anchor="start" x="520.62" y="-468.69" font-family="Source Han Sans CN, Noto Sans CJK SC, sans-serif" font-size="12.00" fill="#172033"> &#160;&#160;&#160;&#160;&#160;</text>
<text xml:space="preserve" text-anchor="start" x="538.62" y="-468.69" font-family="Source Han Sans CN, Noto Sans CJK SC, sans-serif" font-weight="bold" font-size="12.00" fill="#172033">尝试 Sv39</text>
<text xml:space="preserve" text-anchor="start" x="506.75" y="-456.69" font-family="Source Han Sans CN, Noto Sans CJK SC, sans-serif" font-size="12.00" fill="#172033"> &#160;&#160;&#160;&#160;&#160;</text>
<text xml:space="preserve" text-anchor="start" x="524.75" y="-456.69" font-family="Source Han Sans CN, Noto Sans CJK SC, sans-serif" font-size="10.00" fill="#172033">csrw satp, Sv39</text>
<text xml:space="preserve" text-anchor="start" x="595.25" y="-456.69" font-family="Source Han Sans CN, Noto Sans CJK SC, sans-serif" font-size="12.00" fill="#172033"> &#160;&#160;&#160;</text>
</g>
<!-- check_sv39 -->
<g id="node9" class="node">
<title>check_sv39</title>
<path fill="#f7e3e8" stroke="#a44962" stroke-width="1.4" d="M549.61,-407.84C549.61,-407.84 460.67,-378.42 460.67,-378.42 454.98,-376.53 454.98,-372.76 460.67,-370.88 460.67,-370.88 549.61,-341.46 549.61,-341.46 555.3,-339.57 566.7,-339.57 572.39,-341.46 572.39,-341.46 661.33,-370.88 661.33,-370.88 667.02,-372.76 667.02,-376.53 661.33,-378.42 661.33,-378.42 572.39,-407.84 572.39,-407.84 566.7,-409.72 555.3,-409.72 549.61,-407.84"/>
<text xml:space="preserve" text-anchor="start" x="525.75" y="-376.25" font-family="Source Han Sans CN, Noto Sans CJK SC, sans-serif" font-size="12.00" fill="#172033"> &#160;&#160;&#160;&#160;&#160;</text>
<text xml:space="preserve" text-anchor="start" x="543.75" y="-376.25" font-family="Source Han Sans CN, Noto Sans CJK SC, sans-serif" font-weight="bold" font-size="12.00" fill="#172033">读回 satp</text>
<text xml:space="preserve" text-anchor="start" x="514.5" y="-364.25" font-family="Source Han Sans CN, Noto Sans CJK SC, sans-serif" font-size="12.00" fill="#172033"> &#160;&#160;&#160;&#160;&#160;</text>
<text xml:space="preserve" text-anchor="start" x="532.5" y="-364.25" font-family="Source Han Sans CN, Noto Sans CJK SC, sans-serif" font-size="10.00" fill="#172033">Sv39 被接受？</text>
<text xml:space="preserve" text-anchor="start" x="595.5" y="-364.25" font-family="Source Han Sans CN, Noto Sans CJK SC, sans-serif" font-size="12.00" fill="#172033"> &#160;&#160;&#160;</text>
</g>
<!-- dead -->
<g id="node10" class="node">
<title>dead</title>
<path fill="#f7e3e8" stroke="#a44962" stroke-width="1.4" d="M700.74,-285.19C700.74,-285.19 519.26,-285.19 519.26,-285.19 513.26,-285.19 507.26,-279.19 507.26,-273.19 507.26,-273.19 507.26,-260.23 507.26,-260.23 507.26,-254.23 513.26,-248.23 519.26,-248.23 519.26,-248.23 700.74,-248.23 700.74,-248.23 706.74,-248.23 712.74,-254.23 712.74,-260.23 712.74,-260.23 712.74,-273.19 712.74,-273.19 712.74,-279.19 706.74,-285.19 700.74,-285.19"/>
<text xml:space="preserve" text-anchor="start" x="516.62" y="-268.31" font-family="Source Han Sans CN, Noto Sans CJK SC, sans-serif" font-size="12.00" fill="#172033"> &#160;&#160;&#160;&#160;&#160;</text>
<text xml:space="preserve" text-anchor="start" x="534.62" y="-268.31" font-family="Source Han Sans CN, Noto Sans CJK SC, sans-serif" font-weight="bold" font-size="12.00" fill="#172033">bsp_unreachable_pa：死循环</text>
<text xml:space="preserve" text-anchor="start" x="519.62" y="-256.31" font-family="Source Han Sans CN, Noto Sans CJK SC, sans-serif" font-size="12.00" fill="#172033"> &#160;&#160;&#160;&#160;&#160;</text>
<text xml:space="preserve" text-anchor="start" x="537.62" y="-256.31" font-family="Source Han Sans CN, Noto Sans CJK SC, sans-serif" font-size="10.00" fill="#172033">CPU 既不支持 Sv48 也不支持 Sv39</text>
<text xml:space="preserve" text-anchor="start" x="688.38" y="-256.31" font-family="Source Han Sans CN, Noto Sans CJK SC, sans-serif" font-size="12.00" fill="#172033"> &#160;&#160;&#160;</text>
</g>
<!-- flush_tlb -->
<g id="node11" class="node">
<title>flush_tlb</title>
<path fill="#dceeff" stroke="#2f6fa3" stroke-width="1.4" d="M466.49,-285.19C466.49,-285.19 343.51,-285.19 343.51,-285.19 337.51,-285.19 331.51,-279.19 331.51,-273.19 331.51,-273.19 331.51,-260.23 331.51,-260.23 331.51,-254.23 337.51,-248.23 343.51,-248.23 343.51,-248.23 466.49,-248.23 466.49,-248.23 472.49,-248.23 478.49,-254.23 478.49,-260.23 478.49,-260.23 478.49,-273.19 478.49,-273.19 478.49,-279.19 472.49,-285.19 466.49,-285.19"/>
<text xml:space="preserve" text-anchor="start" x="363.38" y="-268.31" font-family="Source Han Sans CN, Noto Sans CJK SC, sans-serif" font-size="12.00" fill="#172033"> &#160;&#160;&#160;&#160;&#160;</text>
<text xml:space="preserve" text-anchor="start" x="381.38" y="-268.31" font-family="Source Han Sans CN, Noto Sans CJK SC, sans-serif" font-weight="bold" font-size="12.00" fill="#172033">sfence.vma</text>
<text xml:space="preserve" text-anchor="start" x="340.88" y="-256.31" font-family="Source Han Sans CN, Noto Sans CJK SC, sans-serif" font-size="12.00" fill="#172033"> &#160;&#160;&#160;&#160;&#160;</text>
<text xml:space="preserve" text-anchor="start" x="358.88" y="-256.31" font-family="Source Han Sans CN, Noto Sans CJK SC, sans-serif" font-size="10.00" fill="#172033">清空 TLB，新页表生效</text>
<text xml:space="preserve" text-anchor="start" x="457.12" y="-256.31" font-family="Source Han Sans CN, Noto Sans CJK SC, sans-serif" font-size="12.00" fill="#172033"> &#160;&#160;&#160;</text>
</g>
<!-- high_half -->
<g id="node12" class="node">
<title>high_half</title>
<path fill="#dceeff" stroke="#2f6fa3" stroke-width="1.4" d="M514.11,-211.23C514.11,-211.23 295.89,-211.23 295.89,-211.23 289.89,-211.23 283.89,-205.23 283.89,-199.23 283.89,-199.23 283.89,-174.27 283.89,-174.27 283.89,-168.27 289.89,-162.27 295.89,-162.27 295.89,-162.27 514.11,-162.27 514.11,-162.27 520.11,-162.27 526.11,-168.27 526.11,-174.27 526.11,-174.27 526.11,-199.23 526.11,-199.23 526.11,-205.23 520.11,-211.23 514.11,-211.23"/>
<text xml:space="preserve" text-anchor="start" x="354" y="-194.35" font-family="Source Han Sans CN, Noto Sans CJK SC, sans-serif" font-size="12.00" fill="#172033"> &#160;&#160;&#160;&#160;&#160;</text>
<text xml:space="preserve" text-anchor="start" x="372" y="-194.35" font-family="Source Han Sans CN, Noto Sans CJK SC, sans-serif" font-weight="bold" font-size="12.00" fill="#172033">切换到高半地址</text>
<text xml:space="preserve" text-anchor="start" x="295.5" y="-182.35" font-family="Source Han Sans CN, Noto Sans CJK SC, sans-serif" font-size="12.00" fill="#172033"> &#160;&#160;&#160;&#160;&#160;</text>
<text xml:space="preserve" text-anchor="start" x="313.5" y="-182.35" font-family="Source Han Sans CN, Noto Sans CJK SC, sans-serif" font-size="10.00" fill="#172033">SP = boot_stack_top | 0xffff_ff00_0000_0000</text>
<text xml:space="preserve" text-anchor="start" x="293.25" y="-170.35" font-family="Source Han Sans CN, Noto Sans CJK SC, sans-serif" font-size="12.00" fill="#172033"> &#160;&#160;&#160;&#160;&#160;</text>
<text xml:space="preserve" text-anchor="start" x="311.25" y="-170.35" font-family="Source Han Sans CN, Noto Sans CJK SC, sans-serif" font-size="10.00" fill="#172033">PC = bsp_boot_virt | 0xffff_ff00_0000_0000</text>
<text xml:space="preserve" text-anchor="start" x="504.75" y="-170.35" font-family="Source Han Sans CN, Noto Sans CJK SC, sans-serif" font-size="12.00" fill="#172033"> &#160;&#160;&#160;</text>
</g>
<!-- init_gp -->
<g id="node13" class="node">
<title>init_gp</title>
<path fill="#dceeff" stroke="#2f6fa3" stroke-width="1.4" d="M511.11,-125.27C511.11,-125.27 298.89,-125.27 298.89,-125.27 292.89,-125.27 286.89,-119.27 286.89,-113.27 286.89,-113.27 286.89,-101.27 286.89,-101.27 286.89,-95.27 292.89,-89.27 298.89,-89.27 298.89,-89.27 511.11,-89.27 511.11,-89.27 517.11,-89.27 523.11,-95.27 523.11,-101.27 523.11,-101.27 523.11,-113.27 523.11,-113.27 523.11,-119.27 517.11,-125.27 511.11,-125.27"/>
<text xml:space="preserve" text-anchor="start" x="296.25" y="-105.87" font-family="Source Han Sans CN, Noto Sans CJK SC, sans-serif" font-size="12.00" fill="#172033"> &#160;&#160;&#160;&#160;&#160;</text>
<text xml:space="preserve" text-anchor="start" x="314.25" y="-105.87" font-family="Source Han Sans CN, Noto Sans CJK SC, sans-serif" font-weight="bold" font-size="12.00" fill="#172033">初始化 GP（CPU&#45;local 存储基址）</text>
<text xml:space="preserve" text-anchor="start" x="501.75" y="-105.87" font-family="Source Han Sans CN, Noto Sans CJK SC, sans-serif" font-size="12.00" fill="#172033"> &#160;&#160;&#160;</text>
</g>
<!-- jump_rust -->
<g id="node14" class="node">
<title>jump_rust</title>
<ellipse fill="#e2f4e8" stroke="#3e8055" stroke-width="1.4" cx="405" cy="-26.13" rx="106.04" ry="26.13"/>
<text xml:space="preserve" text-anchor="start" x="339.38" y="-27.73" font-family="Source Han Sans CN, Noto Sans CJK SC, sans-serif" font-size="12.00" fill="#172033"> &#160;&#160;&#160;&#160;&#160;</text>
<text xml:space="preserve" text-anchor="start" x="357.38" y="-27.73" font-family="Source Han Sans CN, Noto Sans CJK SC, sans-serif" font-weight="bold" font-size="12.00" fill="#172033">jr t0 → riscv_boot()</text>
<text xml:space="preserve" text-anchor="start" x="348.38" y="-15.73" font-family="Source Han Sans CN, Noto Sans CJK SC, sans-serif" font-size="12.00" fill="#172033"> &#160;&#160;&#160;&#160;&#160;</text>
<text xml:space="preserve" text-anchor="start" x="366.38" y="-15.73" font-family="Source Han Sans CN, Noto Sans CJK SC, sans-serif" font-size="10.00" fill="#172033">终于进入 Rust 世界</text>
<text xml:space="preserve" text-anchor="start" x="449.62" y="-15.73" font-family="Source Han Sans CN, Noto Sans CJK SC, sans-serif" font-size="12.00" fill="#172033"> &#160;&#160;&#160;</text>
</g>
<!-- gate_marker -->
<g id="node15" class="node">
<title>gate_marker</title>
<ellipse fill="#475569" stroke="#475569" stroke-width="1.4" cx="210" cy="-575.03" rx="0.36" ry="0.36"/>
</g>
</g>
</svg>
