<?xml version="1.0" encoding="UTF-8" standalone="no"?>
<!DOCTYPE svg PUBLIC "-//W3C//DTD SVG 1.1//EN"
 "http://www.w3.org/Graphics/SVG/1.1/DTD/svg11.dtd">
<!-- Generated by graphviz version 15.1.0 (0)
 -->
<!-- Title: AsterinasPrivilegeStack Pages: 1 -->
<svg width="1490pt" height="286pt"
 viewBox="0.00 0.00 1490.00 286.00" xmlns="http://www.w3.org/2000/svg" xmlns:xlink="http://www.w3.org/1999/xlink">
<g id="graph0" class="graph" transform="scale(1 1) rotate(0) translate(18 267.8)">
<title>AsterinasPrivilegeStack</title>
<g id="clust1" class="cluster">
<title>cluster_hardware</title>
<path fill="none" stroke="#64748b" stroke-width="1.2" stroke-dasharray="5,2" d="M20,-121.4C20,-121.4 382,-121.4 382,-121.4 388,-121.4 394,-127.4 394,-133.4 394,-133.4 394,-229.8 394,-229.8 394,-235.8 388,-241.8 382,-241.8 382,-241.8 20,-241.8 20,-241.8 14,-241.8 8,-235.8 8,-229.8 8,-229.8 8,-133.4 8,-133.4 8,-127.4 14,-121.4 20,-121.4"/>
<text xml:space="preserve" text-anchor="middle" x="201" y="-226.4" font-family="Source Han Sans CN, Noto Sans CJK SC, sans-serif" font-size="12.00" fill="#475569">硬件层（不受软件控制）</text>
</g>
<g id="clust2" class="cluster">
<title>cluster_mmode</title>
<path fill="none" stroke="#a44962" stroke-width="1.2" stroke-dasharray="5,2" d="M414,-8C414,-8 718,-8 718,-8 724,-8 730,-14 730,-20 730,-20 730,-215.8 730,-215.8 730,-221.8 724,-227.8 718,-227.8 718,-227.8 414,-227.8 414,-227.8 408,-227.8 402,-221.8 402,-215.8 402,-215.8 402,-20 402,-20 402,-14 408,-8 414,-8"/>
<text xml:space="preserve" text-anchor="middle" x="566" y="-212.4" font-family="Source Han Sans CN, Noto Sans CJK SC, sans-serif" font-size="12.00" fill="#8b2543">M&#45;mode（Machine mode — 最高特权级）</text>
</g>
<g id="clust3" class="cluster">
<title>cluster_smode</title>
<path fill="none" stroke="#2f6fa3" stroke-width="1.2" stroke-dasharray="5,2" d="M844,-14C844,-14 1166,-14 1166,-14 1172,-14 1178,-20 1178,-26 1178,-26 1178,-221.8 1178,-221.8 1178,-227.8 1172,-233.8 1166,-233.8 1166,-233.8 844,-233.8 844,-233.8 838,-233.8 832,-227.8 832,-221.8 832,-221.8 832,-26 832,-26 832,-20 838,-14 844,-14"/>
<text xml:space="preserve" text-anchor="middle" x="1005" y="-218.4" font-family="Source Han Sans CN, Noto Sans CJK SC, sans-serif" font-size="12.00" fill="#1e4d75">S&#45;mode（Supervisor mode — 操作系统所在特权级）</text>
</g>
<g id="clust4" class="cluster">
<title>cluster_umode</title>
<path fill="none" stroke="#3e8055" stroke-width="1.2" stroke-dasharray="5,2" d="M1198,-137.4C1198,-137.4 1434,-137.4 1434,-137.4 1440,-137.4 1446,-143.4 1446,-149.4 1446,-149.4 1446,-213.8 1446,-213.8 1446,-219.8 1440,-225.8 1434,-225.8 1434,-225.8 1198,-225.8 1198,-225.8 1192,-225.8 1186,-219.8 1186,-213.8 1186,-213.8 1186,-149.4 1186,-149.4 1186,-143.4 1192,-137.4 1198,-137.4"/>
<text xml:space="preserve" text-anchor="middle" x="1316" y="-210.4" font-family="Source Han Sans CN, Noto Sans CJK SC, sans-serif" font-size="12.00" fill="#265538">U&#45;mode（User mode — 最低特权级）</text>
</g>
<!-- mmode_bootrom&#45;&gt;mmode_sbi -->
<g id="edge1" class="edge">
<title>mmode_bootrom&#45;&gt;mmode_sbi</title>
<path fill="none" stroke="#475569" stroke-width="1.6" d="M566,-148.94C566,-131.44 566,-104.81 566,-83.32"/>
<polygon fill="#475569" stroke="#475569" stroke-width="1.6" points="568.8,-83.36 566,-75.36 563.2,-83.36 568.8,-83.36"/>
<text xml:space="preserve" text-anchor="middle" x="576.5" y="-95.18" font-family="Source Han Sans CN, Noto Sans CJK SC, sans-serif" font-size="10.50" fill="#334155">跳转</text>
</g>
<!-- mmode_sbi&#45;&gt;smode_uboot -->
<g id="edge3" class="edge">
<title>mmode_sbi&#45;&gt;smode_uboot</title>
<path fill="none" stroke="#a44962" stroke-width="1.4" stroke-dasharray="5,2" d="M716.87,-62.24C774.21,-67.58 826,-72.4 826,-72.4 826,-72.4 1064,-80.4 1064,-80.4 1064,-80.4 1064,-113.4 1064,-113.4 1064,-113.4 1052.32,-124.13 1039.35,-136.04"/>
<polygon fill="#a44962" stroke="#a44962" stroke-width="1.4" points="1037.64,-133.81 1033.64,-141.29 1041.43,-137.94 1037.64,-133.81"/>
<text xml:space="preserve" text-anchor="middle" x="1127" y="-103.43" font-family="Source Han Sans CN, Noto Sans CJK SC, sans-serif" font-size="10.50" fill="#334155">提供 SBI 服务</text>
<text xml:space="preserve" text-anchor="middle" x="1127" y="-86.93" font-family="Source Han Sans CN, Noto Sans CJK SC, sans-serif" font-size="10.50" fill="#334155">（定时器、控制台、复位）</text>
</g>
<!-- mmode_sbi&#45;&gt;smode_kernel -->
<g id="edge4" class="edge">
<title>mmode_sbi&#45;&gt;smode_kernel</title>
<path fill="none" stroke="#a44962" stroke-width="1.6" stroke-dasharray="5,2" d="M716.77,-47.2C754.81,-47.2 795.91,-47.2 834.82,-47.2"/>
<polygon fill="#a44962" stroke="#a44962" stroke-width="1.6" points="834.78,-50 842.78,-47.2 834.78,-44.4 834.78,-50"/>
<text xml:space="preserve" text-anchor="middle" x="781" y="-73.23" font-family="Source Han Sans CN, Noto Sans CJK SC, sans-serif" font-size="10.50" fill="#334155">提供 SBI 服务</text>
<text xml:space="preserve" text-anchor="middle" x="781" y="-56.73" font-family="Source Han Sans CN, Noto Sans CJK SC, sans-serif" font-size="10.50" fill="#334155">（整个内核生命周期）</text>
</g>
<!-- smode_uboot&#45;&gt;smode_kernel -->
<g id="edge2" class="edge">
<title>smode_uboot&#45;&gt;smode_kernel</title>
<path fill="none" stroke="#475569" stroke-width="1.6" d="M1005,-142.86C1005,-123.84 1005,-97.51 1005,-77.45"/>
<polygon fill="#475569" stroke="#475569" stroke-width="1.6" points="1007.8,-77.46 1005,-69.46 1002.2,-77.46 1007.8,-77.46"/>
<text xml:space="preserve" text-anchor="middle" x="1031.25" y="-103.43" font-family="Source Han Sans CN, Noto Sans CJK SC, sans-serif" font-size="10.50" fill="#334155">booti</text>
<text xml:space="preserve" text-anchor="middle" x="1031.25" y="-86.93" font-family="Source Han Sans CN, Noto Sans CJK SC, sans-serif" font-size="10.50" fill="#334155">交出控制权</text>
</g>
<!-- smode_kernel&#45;&gt;umode_init -->
<g id="edge5" class="edge">
<title>smode_kernel&#45;&gt;umode_init</title>
<path fill="none" stroke="#2f6fa3" stroke-width="1.4" stroke-dasharray="5,2" d="M1152.1,-67.07C1206.88,-74.1 1256,-80.4 1256,-80.4 1256,-80.4 1279.94,-115.2 1297.58,-140.83"/>
<polygon fill="#2f6fa3" stroke="#2f6fa3" stroke-width="1.4" points="1295.23,-142.36 1302.07,-147.36 1299.85,-139.18 1295.23,-142.36"/>
<text xml:space="preserve" text-anchor="middle" x="1337.87" y="-103.43" font-family="Source Han Sans CN, Noto Sans CJK SC, sans-serif" font-size="10.50" fill="#334155">提供 syscall 服务</text>
<text xml:space="preserve" text-anchor="middle" x="1337.87" y="-86.93" font-family="Source Han Sans CN, Noto Sans CJK SC, sans-serif" font-size="10.50" fill="#334155">（文件 I/O、进程、内存）</text>
</g>
<!-- hw -->
<g id="node1" class="node">
<title>hw</title>
<path fill="none" stroke="none" stroke-width="1.4" d="M369.58,-203.8C369.58,-203.8 32.42,-203.8 32.42,-203.8 26.42,-203.8 20.42,-197.8 20.42,-191.8 20.42,-191.8 20.42,-145.4 20.42,-145.4 20.42,-139.4 26.42,-133.4 32.42,-133.4 32.42,-133.4 369.58,-133.4 369.58,-133.4 375.58,-133.4 381.58,-139.4 381.58,-145.4 381.58,-145.4 381.58,-191.8 381.58,-191.8 381.58,-197.8 375.58,-203.8 369.58,-203.8"/>
<text xml:space="preserve" text-anchor="start" x="36.5" y="-180.2" font-family="Source Han Sans CN, Noto Sans CJK SC, sans-serif" font-weight="bold" font-size="12.00" fill="#172033">EIC7700 SoC</text>
<text xml:space="preserve" text-anchor="start" x="125.12" y="-177.1" font-family="Source Han Sans CN, Noto Sans CJK SC, sans-serif" font-size="10.00" fill="#172033">4 × RISC&#45;V core · LPDDR5 控制器 · PLIC · CLINT</text>
<text xml:space="preserve" text-anchor="start" x="60.12" y="-154.2" font-family="Source Han Sans CN, Noto Sans CJK SC, sans-serif" font-weight="bold" font-size="12.00" fill="#172033">外设</text>
<text xml:space="preserve" text-anchor="start" x="115.75" y="-151.1" font-family="Source Han Sans CN, Noto Sans CJK SC, sans-serif" font-size="10.00" fill="#172033">DesignWare UART · HDMI 显示 · SD 卡控制器 · PMIC</text>
</g>
<!-- mmode_bootrom -->
<g id="node2" class="node">
<title>mmode_bootrom</title>
<path fill="#f7e3e8" stroke="#a44962" stroke-width="1.4" d="M685.21,-187.8C685.21,-187.8 446.79,-187.8 446.79,-187.8 440.79,-187.8 434.79,-181.8 434.79,-175.8 434.79,-175.8 434.79,-161.4 434.79,-161.4 434.79,-155.4 440.79,-149.4 446.79,-149.4 446.79,-149.4 685.21,-149.4 685.21,-149.4 691.21,-149.4 697.21,-155.4 697.21,-161.4 697.21,-161.4 697.21,-175.8 697.21,-175.8 697.21,-181.8 691.21,-187.8 685.21,-187.8"/>
<text xml:space="preserve" text-anchor="start" x="524.38" y="-170.2" font-family="Source Han Sans CN, Noto Sans CJK SC, sans-serif" font-size="12.00" fill="#172033"> &#160;&#160;&#160;&#160;&#160;&#160;&#160;</text>
<text xml:space="preserve" text-anchor="start" x="548.38" y="-170.2" font-family="Source Han Sans CN, Noto Sans CJK SC, sans-serif" font-weight="bold" font-size="12.00" fill="#172033">Boot ROM</text>
<text xml:space="preserve" text-anchor="start" x="444.88" y="-158.2" font-family="Source Han Sans CN, Noto Sans CJK SC, sans-serif" font-size="12.00" fill="#172033"> &#160;&#160;&#160;&#160;&#160;&#160;&#160;</text>
<text xml:space="preserve" text-anchor="start" x="468.88" y="-158.2" font-family="Source Han Sans CN, Noto Sans CJK SC, sans-serif" font-size="10.00" fill="#172033">上电复位向量 · DDR 初始化 · 加载 OpenSBI</text>
<text xml:space="preserve" text-anchor="start" x="669.12" y="-158.2" font-family="Source Han Sans CN, Noto Sans CJK SC, sans-serif" font-size="12.00" fill="#172033"> &#160;&#160;&#160;&#160;&#160;</text>
</g>
<!-- mmode_sbi -->
<g id="node3" class="node">
<title>mmode_sbi</title>
<path fill="#f7e3e8" stroke="#a44962" stroke-width="1.4" d="M704.33,-72.4C704.33,-72.4 427.67,-72.4 427.67,-72.4 421.67,-72.4 415.67,-66.4 415.67,-60.4 415.67,-60.4 415.67,-34 415.67,-34 415.67,-28 421.67,-22 427.67,-22 427.67,-22 704.33,-22 704.33,-22 710.33,-22 716.33,-28 716.33,-34 716.33,-34 716.33,-60.4 716.33,-60.4 716.33,-66.4 710.33,-72.4 704.33,-72.4"/>
<text xml:space="preserve" text-anchor="start" x="492.88" y="-54.8" font-family="Source Han Sans CN, Noto Sans CJK SC, sans-serif" font-size="12.00" fill="#172033"> &#160;&#160;&#160;&#160;&#160;&#160;&#160;</text>
<text xml:space="preserve" text-anchor="start" x="516.88" y="-54.8" font-family="Source Han Sans CN, Noto Sans CJK SC, sans-serif" font-weight="bold" font-size="12.00" fill="#172033">OpenSBI（驻留固件）</text>
<text xml:space="preserve" text-anchor="start" x="441.5" y="-42.8" font-family="Source Han Sans CN, Noto Sans CJK SC, sans-serif" font-size="12.00" fill="#172033"> &#160;&#160;&#160;&#160;&#160;&#160;&#160;</text>
<text xml:space="preserve" text-anchor="start" x="465.5" y="-42.8" font-family="Source Han Sans CN, Noto Sans CJK SC, sans-serif" font-size="10.00" fill="#172033">控制台 I/O · 定时器 · 核间中断（IPI）· 系统复位</text>
<text xml:space="preserve" text-anchor="start" x="425.75" y="-30.8" font-family="Source Han Sans CN, Noto Sans CJK SC, sans-serif" font-size="12.00" fill="#172033"> &#160;&#160;&#160;&#160;&#160;&#160;&#160;</text>
<text xml:space="preserve" text-anchor="start" x="449.75" y="-30.8" font-family="Source Han Sans CN, Noto Sans CJK SC, sans-serif" font-size="10.00" fill="#172033">HSM（Hart State Management）· PMU · 安全扩展</text>
<text xml:space="preserve" text-anchor="start" x="688.25" y="-30.8" font-family="Source Han Sans CN, Noto Sans CJK SC, sans-serif" font-size="12.00" fill="#172033"> &#160;&#160;&#160;&#160;&#160;</text>
</g>
<!-- smode_uboot -->
<g id="node4" class="node">
<title>smode_uboot</title>
<path fill="#dceeff" stroke="#2f6fa3" stroke-width="1.4" d="M1124.2,-193.8C1124.2,-193.8 885.79,-193.8 885.79,-193.8 879.79,-193.8 873.79,-187.8 873.79,-181.8 873.79,-181.8 873.79,-155.4 873.79,-155.4 873.79,-149.4 879.79,-143.4 885.79,-143.4 885.79,-143.4 1124.2,-143.4 1124.2,-143.4 1130.2,-143.4 1136.2,-149.4 1136.2,-155.4 1136.2,-155.4 1136.2,-181.8 1136.2,-181.8 1136.2,-187.8 1130.2,-193.8 1124.2,-193.8"/>
<text xml:space="preserve" text-anchor="start" x="913.88" y="-176.2" font-family="Source Han Sans CN, Noto Sans CJK SC, sans-serif" font-size="12.00" fill="#172033"> &#160;&#160;&#160;&#160;&#160;&#160;&#160;</text>
<text xml:space="preserve" text-anchor="start" x="937.88" y="-176.2" font-family="Source Han Sans CN, Noto Sans CJK SC, sans-serif" font-weight="bold" font-size="12.00" fill="#172033">U&#45;Boot（临时 bootloader）</text>
<text xml:space="preserve" text-anchor="start" x="883.88" y="-164.2" font-family="Source Han Sans CN, Noto Sans CJK SC, sans-serif" font-size="12.00" fill="#172033"> &#160;&#160;&#160;&#160;&#160;&#160;&#160;</text>
<text xml:space="preserve" text-anchor="start" x="907.88" y="-164.2" font-family="Source Han Sans CN, Noto Sans CJK SC, sans-serif" font-size="10.00" fill="#172033">从 SD 卡加载 Image · DTB · initramfs 到 DRAM</text>
<text xml:space="preserve" text-anchor="start" x="889.12" y="-152.2" font-family="Source Han Sans CN, Noto Sans CJK SC, sans-serif" font-size="12.00" fill="#172033"> &#160;&#160;&#160;&#160;&#160;&#160;&#160;</text>
<text xml:space="preserve" text-anchor="start" x="913.12" y="-152.2" font-family="Source Han Sans CN, Noto Sans CJK SC, sans-serif" font-size="10.00" fill="#172033">修正 /chosen 节点 · booti 跳转到内核入口</text>
<text xml:space="preserve" text-anchor="start" x="1102.88" y="-152.2" font-family="Source Han Sans CN, Noto Sans CJK SC, sans-serif" font-size="12.00" fill="#172033"> &#160;&#160;&#160;&#160;&#160;</text>
</g>
<!-- smode_kernel -->
<g id="node5" class="node">
<title>smode_kernel</title>
<path fill="#dceeff" stroke="#2f6fa3" stroke-width="1.4" d="M1152.33,-66.4C1152.33,-66.4 857.67,-66.4 857.67,-66.4 851.67,-66.4 845.67,-60.4 845.67,-54.4 845.67,-54.4 845.67,-40 845.67,-40 845.67,-34 851.67,-28 857.67,-28 857.67,-28 1152.33,-28 1152.33,-28 1158.33,-28 1164.33,-34 1164.33,-40 1164.33,-40 1164.33,-54.4 1164.33,-54.4 1164.33,-60.4 1158.33,-66.4 1152.33,-66.4"/>
<text xml:space="preserve" text-anchor="start" x="918.38" y="-48.8" font-family="Source Han Sans CN, Noto Sans CJK SC, sans-serif" font-size="12.00" fill="#172033"> &#160;&#160;&#160;&#160;&#160;&#160;&#160;</text>
<text xml:space="preserve" text-anchor="start" x="942.38" y="-48.8" font-family="Source Han Sans CN, Noto Sans CJK SC, sans-serif" font-weight="bold" font-size="12.00" fill="#172033">Asterinas 内核（持久 OS）</text>
<text xml:space="preserve" text-anchor="start" x="855.75" y="-36.8" font-family="Source Han Sans CN, Noto Sans CJK SC, sans-serif" font-size="12.00" fill="#172033"> &#160;&#160;&#160;&#160;&#160;&#160;&#160;</text>
<text xml:space="preserve" text-anchor="start" x="879.75" y="-36.8" font-family="Source Han Sans CN, Noto Sans CJK SC, sans-serif" font-size="10.00" fill="#172033">页表管理 · 内存分配 · 进程调度 · 驱动 · VFS · syscall</text>
<text xml:space="preserve" text-anchor="start" x="1136.25" y="-36.8" font-family="Source Han Sans CN, Noto Sans CJK SC, sans-serif" font-size="12.00" fill="#172033"> &#160;&#160;&#160;&#160;&#160;</text>
</g>
<!-- umode_init -->
<g id="node6" class="node">
<title>umode_init</title>
<path fill="#e2f4e8" stroke="#3e8055" stroke-width="1.4" d="M1421.7,-187.8C1421.7,-187.8 1210.3,-187.8 1210.3,-187.8 1204.3,-187.8 1198.3,-181.8 1198.3,-175.8 1198.3,-175.8 1198.3,-161.4 1198.3,-161.4 1198.3,-155.4 1204.3,-149.4 1210.3,-149.4 1210.3,-149.4 1421.7,-149.4 1421.7,-149.4 1427.7,-149.4 1433.7,-155.4 1433.7,-161.4 1433.7,-161.4 1433.7,-175.8 1433.7,-175.8 1433.7,-181.8 1427.7,-187.8 1421.7,-187.8"/>
<text xml:space="preserve" text-anchor="start" x="1235.75" y="-170.2" font-family="Source Han Sans CN, Noto Sans CJK SC, sans-serif" font-size="12.00" fill="#172033"> &#160;&#160;&#160;&#160;&#160;&#160;&#160;</text>
<text xml:space="preserve" text-anchor="start" x="1259.75" y="-170.2" font-family="Source Han Sans CN, Noto Sans CJK SC, sans-serif" font-weight="bold" font-size="12.00" fill="#172033">/init → shell → 用户程序</text>
<text xml:space="preserve" text-anchor="start" x="1208.38" y="-158.2" font-family="Source Han Sans CN, Noto Sans CJK SC, sans-serif" font-size="12.00" fill="#172033"> &#160;&#160;&#160;&#160;&#160;&#160;&#160;</text>
<text xml:space="preserve" text-anchor="start" x="1232.38" y="-158.2" font-family="Source Han Sans CN, Noto Sans CJK SC, sans-serif" font-size="10.00" fill="#172033">只能通过 ecall（syscall）请求内核服务</text>
<text xml:space="preserve" text-anchor="start" x="1405.62" y="-158.2" font-family="Source Han Sans CN, Noto Sans CJK SC, sans-serif" font-size="12.00" fill="#172033"> &#160;&#160;&#160;&#160;&#160;</text>
</g>
</g>
</svg>
