<?xml version="1.0" encoding="UTF-8" standalone="no"?>
<!DOCTYPE svg PUBLIC "-//W3C//DTD SVG 1.1//EN"
 "http://www.w3.org/Graphics/SVG/1.1/DTD/svg11.dtd">
<!-- Generated by graphviz version 15.1.0 (0)
 -->
<!-- Title: AsterinasThreeWorlds Pages: 1 -->
<svg width="960pt" height="796pt"
 viewBox="0.00 0.00 960.00 796.00" xmlns="http://www.w3.org/2000/svg" xmlns:xlink="http://www.w3.org/1999/xlink">
<g id="graph0" class="graph" transform="scale(1 1) rotate(0) translate(18 777.8)">
<title>AsterinasThreeWorlds</title>
<g id="clust1" class="cluster">
<title>cluster_host</title>
<path fill="none" stroke="#2f6fa3" stroke-width="1.2" stroke-dasharray="5,2" d="M534,-450.35C534,-450.35 904,-450.35 904,-450.35 910,-450.35 916,-456.35 916,-462.35 916,-462.35 916,-739.8 916,-739.8 916,-745.8 910,-751.8 904,-751.8 904,-751.8 534,-751.8 534,-751.8 528,-751.8 522,-745.8 522,-739.8 522,-739.8 522,-462.35 522,-462.35 522,-456.35 528,-450.35 534,-450.35"/>
<text xml:space="preserve" text-anchor="middle" x="719" y="-735.45" font-family="Source Han Sans CN, Noto Sans CJK SC, sans-serif" font-size="13.00" fill="#1e4d75">世界一：构建机（x86 开发环境）</text>
</g>
<g id="clust2" class="cluster">
<title>cluster_firmware</title>
<path fill="none" stroke="#3e8055" stroke-width="1.2" stroke-dasharray="5,2" d="M20,-339.2C20,-339.2 502,-339.2 502,-339.2 508,-339.2 514,-345.2 514,-351.2 514,-351.2 514,-629.9 514,-629.9 514,-635.9 508,-641.9 502,-641.9 502,-641.9 20,-641.9 20,-641.9 14,-641.9 8,-635.9 8,-629.9 8,-629.9 8,-351.2 8,-351.2 8,-345.2 14,-339.2 20,-339.2"/>
<text xml:space="preserve" text-anchor="middle" x="261" y="-625.55" font-family="Source Han Sans CN, Noto Sans CJK SC, sans-serif" font-size="13.00" fill="#265538">世界二：Megrez 固件（RISC&#45;V 真机）</text>
</g>
<g id="clust3" class="cluster">
<title>cluster_kernel</title>
<path fill="none" stroke="#a36b10" stroke-width="1.2" stroke-dasharray="5,2" d="M41,-8C41,-8 259,-8 259,-8 265,-8 271,-14 271,-20 271,-20 271,-276.7 271,-276.7 271,-282.7 265,-288.7 259,-288.7 259,-288.7 41,-288.7 41,-288.7 35,-288.7 29,-282.7 29,-276.7 29,-276.7 29,-20 29,-20 29,-14 35,-8 41,-8"/>
<text xml:space="preserve" text-anchor="middle" x="150" y="-272.35" font-family="Source Han Sans CN, Noto Sans CJK SC, sans-serif" font-size="13.00" fill="#7a4e0a">世界三：Asterinas 内核（S&#45;mode）</text>
</g>
<!-- host_rust&#45;&gt;host_elf -->
<g id="edge1" class="edge">
<title>host_rust&#45;&gt;host_elf</title>
<path fill="none" stroke="#475569" stroke-width="1.6" d="M807.75,-670.31C806.67,-653.74 805.11,-629.6 803.88,-610.7"/>
<polygon fill="#475569" stroke="#475569" stroke-width="1.6" points="806.5,-610.55 803.4,-603.24 801.26,-610.89 806.5,-610.55"/>
</g>
<!-- host_elf&#45;&gt;host_image -->
<g id="edge2" class="edge">
<title>host_elf&#45;&gt;host_image</title>
<path fill="none" stroke="#475569" stroke-width="1.6" d="M789.86,-560.55C781.07,-546.69 769.08,-527.77 759.3,-512.34"/>
<polygon fill="#475569" stroke="#475569" stroke-width="1.6" points="761.65,-511.15 755.42,-506.22 757.22,-513.96 761.65,-511.15"/>
</g>
<!-- host_image&#45;&gt;fw_uboot -->
<g id="edge7" class="edge">
<title>host_image&#45;&gt;fw_uboot</title>
<path fill="none" stroke="#8b5cf6" stroke-width="1.8" stroke-dasharray="5,2" d="M693.05,-463.75C650.29,-446.9 595,-425.1 595,-425.1 595,-425.1 554.91,-417.06 508.66,-407.77"/>
<polygon fill="#8b5cf6" stroke="#8b5cf6" stroke-width="1.8" points="509.24,-405.21 501.37,-406.31 508.21,-410.36 509.24,-405.21"/>
<text xml:space="preserve" text-anchor="middle" x="680.44" y="-431.9" font-family="Source Han Sans CN, Noto Sans CJK SC, sans-serif" font-size="11.00" fill="#334155">放入 SD 卡 /boot</text>
</g>
<!-- host_initramfs&#45;&gt;fw_uboot -->
<g id="edge8" class="edge">
<title>host_initramfs&#45;&gt;fw_uboot</title>
<path fill="none" stroke="#8b5cf6" stroke-width="1.8" stroke-dasharray="5,2" d="M603.31,-670.43C580.53,-613.65 515,-450.35 515,-450.35 515,-450.35 471.41,-429.1 432.2,-409.98"/>
<polygon fill="#8b5cf6" stroke="#8b5cf6" stroke-width="1.8" points="433.74,-407.81 425.84,-406.89 431.43,-412.53 433.74,-407.81"/>
<text xml:space="preserve" text-anchor="middle" x="592.93" y="-530.55" font-family="Source Han Sans CN, Noto Sans CJK SC, sans-serif" font-size="11.00" fill="#334155">放入 SD 卡 /boot</text>
</g>
<!-- fw_rom&#45;&gt;fw_sbi -->
<g id="edge3" class="edge">
<title>fw_rom&#45;&gt;fw_sbi</title>
<path fill="none" stroke="#475569" stroke-width="1.6" d="M205.57,-560.55C191.13,-546.31 171.26,-526.71 155.38,-511.06"/>
<polygon fill="#475569" stroke="#475569" stroke-width="1.6" points="157.31,-509.27 150.12,-505.88 153.62,-513.01 157.31,-509.27"/>
</g>
<!-- fw_rom&#45;&gt;fw_dtb -->
<!-- fw_sbi&#45;&gt;fw_uboot -->
<g id="edge4" class="edge">
<title>fw_sbi&#45;&gt;fw_uboot</title>
<path fill="none" stroke="#475569" stroke-width="1.6" d="M164.46,-463.75C195.44,-446.9 235.5,-425.1 235.5,-425.1 235.5,-425.1 257.96,-417.65 284.59,-408.82"/>
<polygon fill="#475569" stroke="#475569" stroke-width="1.6" points="285.16,-411.39 291.45,-406.54 283.51,-406.41 285.16,-411.39"/>
<text xml:space="preserve" text-anchor="middle" x="302.25" y="-431.9" font-family="Source Han Sans CN, Noto Sans CJK SC, sans-serif" font-size="11.00" fill="#334155">作为 S&#45;mode payload 启动</text>
</g>
<!-- fw_sbi&#45;&gt;kern_asm -->
<g id="edge11" class="edge">
<title>fw_sbi&#45;&gt;kern_asm</title>
<path fill="none" stroke="#64748b" stroke-width="1.6" stroke-dasharray="5,2" d="M130.36,-463.95C133.15,-424.82 139.25,-339.2 139.25,-339.2 139.25,-339.2 145.49,-293.27 150.36,-257.5"/>
<polygon fill="#64748b" stroke="#64748b" stroke-width="1.6" points="152.95,-257.91 151.36,-250.13 147.75,-257.2 152.95,-257.91"/>
<text xml:space="preserve" text-anchor="middle" x="183.12" y="-377.32" font-family="Source Han Sans CN, Noto Sans CJK SC, sans-serif" font-size="11.00" fill="#334155">SBI 服务（ecall）</text>
</g>
<!-- fw_sbi&#45;&gt;kern_ostd -->
<g id="edge12" class="edge">
<title>fw_sbi&#45;&gt;kern_ostd</title>
<path fill="none" stroke="#64748b" stroke-width="1.6" stroke-dasharray="5,2" d="M118.39,-463.82C95.86,-422.96 45.25,-331.2 45.25,-331.2 45.25,-331.2 45.25,-296.7 45.25,-296.7 45.25,-296.7 46,-182.8 46,-182.8 46,-182.8 79.03,-163.84 107.85,-147.29"/>
<polygon fill="#64748b" stroke="#64748b" stroke-width="1.6" points="108.94,-149.7 114.13,-143.69 106.32,-145.15 108.94,-149.7"/>
<text xml:space="preserve" text-anchor="middle" x="89.12" y="-312.12" font-family="Source Han Sans CN, Noto Sans CJK SC, sans-serif" font-size="11.00" fill="#334155">SBI 服务（ecall）</text>
</g>
<!-- fw_uboot&#45;&gt;kern_asm -->
<g id="edge10" class="edge">
<title>fw_uboot&#45;&gt;kern_asm</title>
<path fill="none" stroke="#475569" stroke-width="2" d="M337.41,-352.81C302.34,-326.37 246.95,-284.59 206.59,-254.16"/>
<polygon fill="#475569" stroke="#475569" stroke-width="2" points="208.21,-252.09 200.64,-249.66 205.04,-256.28 208.21,-252.09"/>
<text xml:space="preserve" text-anchor="middle" x="356.22" y="-320.75" font-family="Source Han Sans CN, Noto Sans CJK SC, sans-serif" font-size="11.00" fill="#334155">booti 跳转</text>
<text xml:space="preserve" text-anchor="middle" x="356.22" y="-303.5" font-family="Source Han Sans CN, Noto Sans CJK SC, sans-serif" font-size="11.00" fill="#334155">a0=hart ID, a1=DTB</text>
</g>
<!-- fw_dtb&#45;&gt;fw_uboot -->
<g id="edge9" class="edge">
<title>fw_dtb&#45;&gt;fw_uboot</title>
<path fill="none" stroke="#475569" stroke-width="1.6" d="M380.74,-463.7C379.16,-450.1 376.99,-431.53 375.1,-415.34"/>
<polygon fill="#475569" stroke="#475569" stroke-width="1.6" points="377.73,-415.19 374.25,-408.05 372.51,-415.8 377.73,-415.19"/>
</g>
<!-- kern_asm&#45;&gt;kern_ostd -->
<g id="edge5" class="edge">
<title>kern_asm&#45;&gt;kern_ostd</title>
<path fill="none" stroke="#475569" stroke-width="1.6" d="M153.9,-182.21C153.26,-172.43 152.55,-161.73 151.92,-152.15"/>
<polygon fill="#475569" stroke="#475569" stroke-width="1.6" points="154.54,-152.01 151.43,-144.7 149.3,-152.36 154.54,-152.01"/>
</g>
<!-- kern_ostd&#45;&gt;kern_kernel -->
<g id="edge6" class="edge">
<title>kern_ostd&#45;&gt;kern_kernel</title>
<path fill="none" stroke="#475569" stroke-width="1.6" d="M150,-101.72C150,-92.61 150,-81.55 150,-71.49"/>
<polygon fill="#475569" stroke="#475569" stroke-width="1.6" points="152.63,-71.78 150,-64.28 147.38,-71.78 152.63,-71.78"/>
</g>
<!-- host_rust -->
<g id="node1" class="node">
<title>host_rust</title>
<path fill="#dceeff" stroke="#2f6fa3" stroke-width="1.4" d="M889.96,-710.3C889.96,-710.3 728.04,-710.3 728.04,-710.3 722.04,-710.3 716.04,-704.3 716.04,-698.3 716.04,-698.3 716.04,-682.9 716.04,-682.9 716.04,-676.9 722.04,-670.9 728.04,-670.9 728.04,-670.9 889.96,-670.9 889.96,-670.9 895.96,-670.9 901.96,-676.9 901.96,-682.9 901.96,-682.9 901.96,-698.3 901.96,-698.3 901.96,-704.3 895.96,-710.3 889.96,-710.3"/>
<text xml:space="preserve" text-anchor="start" x="736.62" y="-692.23" font-family="Source Han Sans CN, Noto Sans CJK SC, sans-serif" font-size="12.50" fill="#172033"> &#160;&#160;&#160;&#160;&#160;&#160;&#160;</text>
<text xml:space="preserve" text-anchor="start" x="760.62" y="-692.23" font-family="Source Han Sans CN, Noto Sans CJK SC, sans-serif" font-weight="bold" font-size="12.50" fill="#172033">Rust 编译器 + 链接器</text>
<text xml:space="preserve" text-anchor="start" x="726.12" y="-679.73" font-family="Source Han Sans CN, Noto Sans CJK SC, sans-serif" font-size="12.50" fill="#172033"> &#160;&#160;&#160;&#160;&#160;&#160;&#160;</text>
<text xml:space="preserve" text-anchor="start" x="750.12" y="-679.73" font-family="Source Han Sans CN, Noto Sans CJK SC, sans-serif" font-size="10.00" fill="#172033">cargo build &#45;&#45;target riscv64</text>
<text xml:space="preserve" text-anchor="start" x="873.88" y="-679.73" font-family="Source Han Sans CN, Noto Sans CJK SC, sans-serif" font-size="12.50" fill="#172033"> &#160;&#160;&#160;&#160;&#160;</text>
</g>
<!-- host_elf -->
<g id="node2" class="node">
<title>host_elf</title>
<path fill="#dceeff" stroke="#2f6fa3" stroke-width="1.4" d="M874.33,-600.4C874.33,-600.4 729.67,-600.4 729.67,-600.4 723.67,-600.4 717.67,-594.4 717.67,-588.4 717.67,-588.4 717.67,-573 717.67,-573 717.67,-567 723.67,-561 729.67,-561 729.67,-561 874.33,-561 874.33,-561 880.33,-561 886.33,-567 886.33,-573 886.33,-573 886.33,-588.4 886.33,-588.4 886.33,-594.4 880.33,-600.4 874.33,-600.4"/>
<text xml:space="preserve" text-anchor="start" x="757.38" y="-582.33" font-family="Source Han Sans CN, Noto Sans CJK SC, sans-serif" font-size="12.50" fill="#172033"> &#160;&#160;&#160;&#160;&#160;&#160;&#160;</text>
<text xml:space="preserve" text-anchor="start" x="781.38" y="-582.33" font-family="Source Han Sans CN, Noto Sans CJK SC, sans-serif" font-weight="bold" font-size="12.50" fill="#172033">RISC&#45;V ELF</text>
<text xml:space="preserve" text-anchor="start" x="727.75" y="-569.83" font-family="Source Han Sans CN, Noto Sans CJK SC, sans-serif" font-size="12.50" fill="#172033"> &#160;&#160;&#160;&#160;&#160;&#160;&#160;</text>
<text xml:space="preserve" text-anchor="start" x="751.75" y="-569.83" font-family="Source Han Sans CN, Noto Sans CJK SC, sans-serif" font-size="10.00" fill="#172033">段 · 符号 · 重定位信息</text>
<text xml:space="preserve" text-anchor="start" x="858.25" y="-569.83" font-family="Source Han Sans CN, Noto Sans CJK SC, sans-serif" font-size="12.50" fill="#172033"> &#160;&#160;&#160;&#160;&#160;</text>
</g>
<!-- host_image -->
<g id="node3" class="node">
<title>host_image</title>
<path fill="#dceeff" stroke="#2f6fa3" stroke-width="1.4" d="M840.58,-503.75C840.58,-503.75 643.42,-503.75 643.42,-503.75 637.42,-503.75 631.42,-497.75 631.42,-491.75 631.42,-491.75 631.42,-476.35 631.42,-476.35 631.42,-470.35 637.42,-464.35 643.42,-464.35 643.42,-464.35 840.58,-464.35 840.58,-464.35 846.58,-464.35 852.58,-470.35 852.58,-476.35 852.58,-476.35 852.58,-491.75 852.58,-491.75 852.58,-497.75 846.58,-503.75 840.58,-503.75"/>
<text xml:space="preserve" text-anchor="start" x="655.38" y="-485.67" font-family="Source Han Sans CN, Noto Sans CJK SC, sans-serif" font-size="12.50" fill="#172033"> &#160;&#160;&#160;&#160;&#160;&#160;&#160;</text>
<text xml:space="preserve" text-anchor="start" x="679.38" y="-485.67" font-family="Source Han Sans CN, Noto Sans CJK SC, sans-serif" font-weight="bold" font-size="12.50" fill="#172033">平坦 Linux Image (booti)</text>
<text xml:space="preserve" text-anchor="start" x="641.5" y="-473.17" font-family="Source Han Sans CN, Noto Sans CJK SC, sans-serif" font-size="12.50" fill="#172033"> &#160;&#160;&#160;&#160;&#160;&#160;&#160;</text>
<text xml:space="preserve" text-anchor="start" x="665.5" y="-473.17" font-family="Source Han Sans CN, Noto Sans CJK SC, sans-serif" font-size="10.00" fill="#172033">make_booti.py 抽取 · 验证 · 补零</text>
<text xml:space="preserve" text-anchor="start" x="824.5" y="-473.17" font-family="Source Han Sans CN, Noto Sans CJK SC, sans-serif" font-size="12.50" fill="#172033"> &#160;&#160;&#160;&#160;&#160;</text>
</g>
<!-- host_initramfs -->
<g id="node4" class="node">
<title>host_initramfs</title>
<path fill="#dceeff" stroke="#2f6fa3" stroke-width="1.4" d="M674.33,-710.3C674.33,-710.3 547.67,-710.3 547.67,-710.3 541.67,-710.3 535.67,-704.3 535.67,-698.3 535.67,-698.3 535.67,-682.9 535.67,-682.9 535.67,-676.9 541.67,-670.9 547.67,-670.9 547.67,-670.9 674.33,-670.9 674.33,-670.9 680.33,-670.9 686.33,-676.9 686.33,-682.9 686.33,-682.9 686.33,-698.3 686.33,-698.3 686.33,-704.3 680.33,-710.3 674.33,-710.3"/>
<text xml:space="preserve" text-anchor="start" x="556.62" y="-692.23" font-family="Source Han Sans CN, Noto Sans CJK SC, sans-serif" font-size="12.50" fill="#172033"> &#160;&#160;&#160;&#160;&#160;&#160;&#160;</text>
<text xml:space="preserve" text-anchor="start" x="580.62" y="-692.23" font-family="Source Han Sans CN, Noto Sans CJK SC, sans-serif" font-weight="bold" font-size="12.50" fill="#172033">最小 initramfs</text>
<text xml:space="preserve" text-anchor="start" x="545.75" y="-679.73" font-family="Source Han Sans CN, Noto Sans CJK SC, sans-serif" font-size="12.50" fill="#172033"> &#160;&#160;&#160;&#160;&#160;&#160;&#160;</text>
<text xml:space="preserve" text-anchor="start" x="569.75" y="-679.73" font-family="Source Han Sans CN, Noto Sans CJK SC, sans-serif" font-size="10.00" fill="#172033">cpio.gz · 诊断 /init</text>
<text xml:space="preserve" text-anchor="start" x="658.25" y="-679.73" font-family="Source Han Sans CN, Noto Sans CJK SC, sans-serif" font-size="12.50" fill="#172033"> &#160;&#160;&#160;&#160;&#160;</text>
</g>
<!-- fw_rom -->
<g id="node5" class="node">
<title>fw_rom</title>
<path fill="#e2f4e8" stroke="#3e8055" stroke-width="1.4" d="M316.83,-600.4C316.83,-600.4 133.17,-600.4 133.17,-600.4 127.17,-600.4 121.17,-594.4 121.17,-588.4 121.17,-588.4 121.17,-573 121.17,-573 121.17,-567 127.17,-561 133.17,-561 133.17,-561 316.83,-561 316.83,-561 322.83,-561 328.83,-567 328.83,-573 328.83,-573 328.83,-588.4 328.83,-588.4 328.83,-594.4 322.83,-600.4 316.83,-600.4"/>
<text xml:space="preserve" text-anchor="start" x="142.5" y="-582.33" font-family="Source Han Sans CN, Noto Sans CJK SC, sans-serif" font-size="12.50" fill="#172033"> &#160;&#160;&#160;&#160;&#160;&#160;&#160;</text>
<text xml:space="preserve" text-anchor="start" x="166.5" y="-582.33" font-family="Source Han Sans CN, Noto Sans CJK SC, sans-serif" font-weight="bold" font-size="12.50" fill="#172033">Boot ROM + DDR 初始化</text>
<text xml:space="preserve" text-anchor="start" x="131.25" y="-569.83" font-family="Source Han Sans CN, Noto Sans CJK SC, sans-serif" font-size="12.50" fill="#172033"> &#160;&#160;&#160;&#160;&#160;&#160;&#160;</text>
<text xml:space="preserve" text-anchor="start" x="155.25" y="-569.83" font-family="Source Han Sans CN, Noto Sans CJK SC, sans-serif" font-size="10.00" fill="#172033">上电第一条指令，初始化 LPDDR5</text>
<text xml:space="preserve" text-anchor="start" x="300.75" y="-569.83" font-family="Source Han Sans CN, Noto Sans CJK SC, sans-serif" font-size="12.50" fill="#172033"> &#160;&#160;&#160;&#160;&#160;</text>
</g>
<!-- fw_sbi -->
<g id="node6" class="node">
<title>fw_sbi</title>
<path fill="#e2f4e8" stroke="#3e8055" stroke-width="1.4" d="M224.2,-503.75C224.2,-503.75 33.8,-503.75 33.8,-503.75 27.8,-503.75 21.8,-497.75 21.8,-491.75 21.8,-491.75 21.8,-476.35 21.8,-476.35 21.8,-470.35 27.8,-464.35 33.8,-464.35 33.8,-464.35 224.2,-464.35 224.2,-464.35 230.2,-464.35 236.2,-470.35 236.2,-476.35 236.2,-476.35 236.2,-491.75 236.2,-491.75 236.2,-497.75 230.2,-503.75 224.2,-503.75"/>
<text xml:space="preserve" text-anchor="start" x="52.12" y="-485.67" font-family="Source Han Sans CN, Noto Sans CJK SC, sans-serif" font-size="12.50" fill="#172033"> &#160;&#160;&#160;&#160;&#160;&#160;&#160;</text>
<text xml:space="preserve" text-anchor="start" x="76.12" y="-485.67" font-family="Source Han Sans CN, Noto Sans CJK SC, sans-serif" font-weight="bold" font-size="12.50" fill="#172033">OpenSBI（M&#45;mode）</text>
<text xml:space="preserve" text-anchor="start" x="31.88" y="-473.17" font-family="Source Han Sans CN, Noto Sans CJK SC, sans-serif" font-size="12.50" fill="#172033"> &#160;&#160;&#160;&#160;&#160;&#160;&#160;</text>
<text xml:space="preserve" text-anchor="start" x="55.88" y="-473.17" font-family="Source Han Sans CN, Noto Sans CJK SC, sans-serif" font-size="10.00" fill="#172033">控制台 · 定时器 · IPI · 系统复位</text>
<text xml:space="preserve" text-anchor="start" x="208.12" y="-473.17" font-family="Source Han Sans CN, Noto Sans CJK SC, sans-serif" font-size="12.50" fill="#172033"> &#160;&#160;&#160;&#160;&#160;</text>
</g>
<!-- fw_uboot -->
<g id="node7" class="node">
<title>fw_uboot</title>
<path fill="#e2f4e8" stroke="#3e8055" stroke-width="1.4" d="M487.96,-405.1C487.96,-405.1 254.04,-405.1 254.04,-405.1 248.04,-405.1 242.04,-399.1 242.04,-393.1 242.04,-393.1 242.04,-365.2 242.04,-365.2 242.04,-359.2 248.04,-353.2 254.04,-353.2 254.04,-353.2 487.96,-353.2 487.96,-353.2 493.96,-353.2 499.96,-359.2 499.96,-365.2 499.96,-365.2 499.96,-393.1 499.96,-393.1 499.96,-399.1 493.96,-405.1 487.96,-405.1"/>
<text xml:space="preserve" text-anchor="start" x="274.62" y="-387.02" font-family="Source Han Sans CN, Noto Sans CJK SC, sans-serif" font-size="12.50" fill="#172033"> &#160;&#160;&#160;&#160;&#160;&#160;&#160;</text>
<text xml:space="preserve" text-anchor="start" x="298.62" y="-387.02" font-family="Source Han Sans CN, Noto Sans CJK SC, sans-serif" font-weight="bold" font-size="12.50" fill="#172033">U&#45;Boot（S&#45;mode payload）</text>
<text xml:space="preserve" text-anchor="start" x="270.5" y="-374.52" font-family="Source Han Sans CN, Noto Sans CJK SC, sans-serif" font-size="12.50" fill="#172033"> &#160;&#160;&#160;&#160;&#160;&#160;&#160;</text>
<text xml:space="preserve" text-anchor="start" x="294.5" y="-374.52" font-family="Source Han Sans CN, Noto Sans CJK SC, sans-serif" font-size="10.00" fill="#172033">从 SD 卡加载 Image · DTB · initramfs</text>
<text xml:space="preserve" text-anchor="start" x="252.12" y="-362.02" font-family="Source Han Sans CN, Noto Sans CJK SC, sans-serif" font-size="12.50" fill="#172033"> &#160;&#160;&#160;&#160;&#160;&#160;&#160;</text>
<text xml:space="preserve" text-anchor="start" x="276.12" y="-362.02" font-family="Source Han Sans CN, Noto Sans CJK SC, sans-serif" font-size="10.00" fill="#172033">校验 Image 头 → 修补 /chosen → booti 跳转</text>
<text xml:space="preserve" text-anchor="start" x="471.88" y="-362.02" font-family="Source Han Sans CN, Noto Sans CJK SC, sans-serif" font-size="12.50" fill="#172033"> &#160;&#160;&#160;&#160;&#160;</text>
</g>
<!-- fw_dtb -->
<g id="node8" class="node">
<title>fw_dtb</title>
<path fill="#e2f4e8" stroke="#3e8055" stroke-width="1.4" d="M487.95,-503.75C487.95,-503.75 278.05,-503.75 278.05,-503.75 272.05,-503.75 266.05,-497.75 266.05,-491.75 266.05,-491.75 266.05,-476.35 266.05,-476.35 266.05,-470.35 272.05,-464.35 278.05,-464.35 278.05,-464.35 487.95,-464.35 487.95,-464.35 493.95,-464.35 499.95,-470.35 499.95,-476.35 499.95,-476.35 499.95,-491.75 499.95,-491.75 499.95,-497.75 493.95,-503.75 487.95,-503.75"/>
<text xml:space="preserve" text-anchor="start" x="344.75" y="-485.67" font-family="Source Han Sans CN, Noto Sans CJK SC, sans-serif" font-size="12.50" fill="#172033"> &#160;&#160;&#160;&#160;&#160;&#160;&#160;</text>
<text xml:space="preserve" text-anchor="start" x="368.75" y="-485.67" font-family="Source Han Sans CN, Noto Sans CJK SC, sans-serif" font-weight="bold" font-size="12.50" fill="#172033">板载 DTB</text>
<text xml:space="preserve" text-anchor="start" x="276.12" y="-473.17" font-family="Source Han Sans CN, Noto Sans CJK SC, sans-serif" font-size="12.50" fill="#172033"> &#160;&#160;&#160;&#160;&#160;&#160;&#160;</text>
<text xml:space="preserve" text-anchor="start" x="300.12" y="-473.17" font-family="Source Han Sans CN, Noto Sans CJK SC, sans-serif" font-size="10.00" fill="#172033">内存 · CPU · PLIC · UART · 保留区</text>
<text xml:space="preserve" text-anchor="start" x="471.88" y="-473.17" font-family="Source Han Sans CN, Noto Sans CJK SC, sans-serif" font-size="12.50" fill="#172033"> &#160;&#160;&#160;&#160;&#160;</text>
</g>
<!-- kern_asm -->
<g id="node9" class="node">
<title>kern_asm</title>
<path fill="#fff0c9" stroke="#a36b10" stroke-width="1.4" d="M238.83,-247.2C238.83,-247.2 73.17,-247.2 73.17,-247.2 67.17,-247.2 61.17,-241.2 61.17,-235.2 61.17,-235.2 61.17,-194.8 61.17,-194.8 61.17,-188.8 67.17,-182.8 73.17,-182.8 73.17,-182.8 238.83,-182.8 238.83,-182.8 244.83,-182.8 250.83,-188.8 250.83,-194.8 250.83,-194.8 250.83,-235.2 250.83,-235.2 250.83,-241.2 244.83,-247.2 238.83,-247.2"/>
<text xml:space="preserve" text-anchor="start" x="71.25" y="-229.12" font-family="Source Han Sans CN, Noto Sans CJK SC, sans-serif" font-size="12.50" fill="#172033"> &#160;&#160;&#160;&#160;&#160;&#160;&#160;</text>
<text xml:space="preserve" text-anchor="start" x="95.25" y="-229.12" font-family="Source Han Sans CN, Noto Sans CJK SC, sans-serif" font-weight="bold" font-size="12.50" fill="#172033">bsp_boot.S（汇编入口）</text>
<text xml:space="preserve" text-anchor="start" x="99.75" y="-216.62" font-family="Source Han Sans CN, Noto Sans CJK SC, sans-serif" font-size="12.50" fill="#172033"> &#160;&#160;&#160;&#160;&#160;&#160;&#160;</text>
<text xml:space="preserve" text-anchor="start" x="123.75" y="-216.62" font-family="Source Han Sans CN, Noto Sans CJK SC, sans-serif" font-size="10.00" fill="#172033">跳过 64 字节 header</text>
<text xml:space="preserve" text-anchor="start" x="88.5" y="-204.12" font-family="Source Han Sans CN, Noto Sans CJK SC, sans-serif" font-size="12.50" fill="#172033"> &#160;&#160;&#160;&#160;&#160;&#160;&#160;</text>
<text xml:space="preserve" text-anchor="start" x="112.5" y="-204.12" font-family="Source Han Sans CN, Noto Sans CJK SC, sans-serif" font-size="10.00" fill="#172033">构造 Sv48 页表 → 写 satp</text>
<text xml:space="preserve" text-anchor="start" x="77.62" y="-191.62" font-family="Source Han Sans CN, Noto Sans CJK SC, sans-serif" font-size="12.50" fill="#172033"> &#160;&#160;&#160;&#160;&#160;&#160;&#160;</text>
<text xml:space="preserve" text-anchor="start" x="101.62" y="-191.62" font-family="Source Han Sans CN, Noto Sans CJK SC, sans-serif" font-size="10.00" fill="#172033">切换高半地址 → 跳转 Rust</text>
<text xml:space="preserve" text-anchor="start" x="216.38" y="-191.62" font-family="Source Han Sans CN, Noto Sans CJK SC, sans-serif" font-size="12.50" fill="#172033"> &#160;&#160;&#160;&#160;&#160;</text>
</g>
<!-- kern_ostd -->
<g id="node10" class="node">
<title>kern_ostd</title>
<path fill="#fff0c9" stroke="#a36b10" stroke-width="1.4" d="M245.2,-141.8C245.2,-141.8 54.8,-141.8 54.8,-141.8 48.8,-141.8 42.8,-135.8 42.8,-129.8 42.8,-129.8 42.8,-114.4 42.8,-114.4 42.8,-108.4 48.8,-102.4 54.8,-102.4 54.8,-102.4 245.2,-102.4 245.2,-102.4 251.2,-102.4 257.2,-108.4 257.2,-114.4 257.2,-114.4 257.2,-129.8 257.2,-129.8 257.2,-135.8 251.2,-141.8 245.2,-141.8"/>
<text xml:space="preserve" text-anchor="start" x="60.75" y="-123.73" font-family="Source Han Sans CN, Noto Sans CJK SC, sans-serif" font-size="12.50" fill="#172033"> &#160;&#160;&#160;&#160;&#160;&#160;&#160;</text>
<text xml:space="preserve" text-anchor="start" x="84.75" y="-123.73" font-family="Source Han Sans CN, Noto Sans CJK SC, sans-serif" font-weight="bold" font-size="12.50" fill="#172033">Rust OSTD（riscv_boot）</text>
<text xml:space="preserve" text-anchor="start" x="52.88" y="-111.23" font-family="Source Han Sans CN, Noto Sans CJK SC, sans-serif" font-size="12.50" fill="#172033"> &#160;&#160;&#160;&#160;&#160;&#160;&#160;</text>
<text xml:space="preserve" text-anchor="start" x="76.88" y="-111.23" font-family="Source Han Sans CN, Noto Sans CJK SC, sans-serif" font-size="10.00" fill="#172033">解析 DTB · 初始化内存 · 启动 AP</text>
<text xml:space="preserve" text-anchor="start" x="229.12" y="-111.23" font-family="Source Han Sans CN, Noto Sans CJK SC, sans-serif" font-size="12.50" fill="#172033"> &#160;&#160;&#160;&#160;&#160;</text>
</g>
<!-- kern_kernel -->
<g id="node11" class="node">
<title>kern_kernel</title>
<path fill="#fff0c9" stroke="#a36b10" stroke-width="1.4" d="M234.33,-61.4C234.33,-61.4 65.67,-61.4 65.67,-61.4 59.67,-61.4 53.67,-55.4 53.67,-49.4 53.67,-49.4 53.67,-34 53.67,-34 53.67,-28 59.67,-22 65.67,-22 65.67,-22 234.33,-22 234.33,-22 240.33,-22 246.33,-28 246.33,-34 246.33,-34 246.33,-49.4 246.33,-49.4 246.33,-55.4 240.33,-61.4 234.33,-61.4"/>
<text xml:space="preserve" text-anchor="start" x="65.25" y="-43.33" font-family="Source Han Sans CN, Noto Sans CJK SC, sans-serif" font-size="12.50" fill="#172033"> &#160;&#160;&#160;&#160;&#160;&#160;&#160;</text>
<text xml:space="preserve" text-anchor="start" x="89.25" y="-43.33" font-family="Source Han Sans CN, Noto Sans CJK SC, sans-serif" font-weight="bold" font-size="12.50" fill="#172033">Asterinas 安全 Rust 内核</text>
<text xml:space="preserve" text-anchor="start" x="63.75" y="-30.83" font-family="Source Han Sans CN, Noto Sans CJK SC, sans-serif" font-size="12.50" fill="#172033"> &#160;&#160;&#160;&#160;&#160;&#160;&#160;</text>
<text xml:space="preserve" text-anchor="start" x="87.75" y="-30.83" font-family="Source Han Sans CN, Noto Sans CJK SC, sans-serif" font-size="10.00" fill="#172033">组件 · 驱动 · VFS · syscall</text>
<text xml:space="preserve" text-anchor="start" x="218.25" y="-30.83" font-family="Source Han Sans CN, Noto Sans CJK SC, sans-serif" font-size="12.50" fill="#172033"> &#160;&#160;&#160;&#160;&#160;</text>
</g>
</g>
</svg>
