<?xml version="1.0" encoding="UTF-8" standalone="no"?>
<!DOCTYPE svg PUBLIC "-//W3C//DTD SVG 1.1//EN"
 "http://www.w3.org/Graphics/SVG/1.1/DTD/svg11.dtd">
<!-- Generated by graphviz version 2.43.0 (0)
 -->
<!-- Title: SplitLeafInverse Pages: 1 -->
<svg width="581pt" height="402pt"
 viewBox="0.00 0.00 581.00 402.00" xmlns="http://www.w3.org/2000/svg" xmlns:xlink="http://www.w3.org/1999/xlink">
<g id="graph0" class="graph" transform="scale(1 1) rotate(0) translate(4 398)">
<title>SplitLeafInverse</title>
<polygon fill="white" stroke="transparent" points="-4,4 -4,-398 577,-398 577,4 -4,4"/>
<g id="clust1" class="cluster">
<title>cluster_left</title>
<path fill="none" stroke="gray" d="M20,-237C20,-237 307,-237 307,-237 313,-237 319,-243 319,-249 319,-249 319,-374 319,-374 319,-380 313,-386 307,-386 307,-386 20,-386 20,-386 14,-386 8,-380 8,-374 8,-374 8,-249 8,-249 8,-243 14,-237 20,-237"/>
<text text-anchor="middle" x="163.5" y="-370.8" font-family="Times,serif" font-size="14.00">合并后的 reduced tree（归纳假设已知最优）</text>
</g>
<g id="clust2" class="cluster">
<title>cluster_right</title>
<path fill="none" stroke="gray" d="M334,-8C334,-8 553,-8 553,-8 559,-8 565,-14 565,-20 565,-20 565,-217 565,-217 565,-223 559,-229 553,-229 553,-229 334,-229 334,-229 328,-229 322,-223 322,-217 322,-217 322,-20 322,-20 322,-14 328,-8 334,-8"/>
<text text-anchor="middle" x="443.5" y="-213.8" font-family="Times,serif" font-size="14.00">分裂后得到原森林的 Huffman 输出</text>
</g>
<!-- root1 -->
<g id="node1" class="node">
<title>root1</title>
<ellipse fill="none" stroke="black" cx="283" cy="-337" rx="27" ry="18"/>
<text text-anchor="middle" x="283" y="-333.3" font-family="Helvetica,sans-Serif" font-size="14.00">...</text>
</g>
<!-- leaf_z -->
<g id="node2" class="node">
<title>leaf_z</title>
<polygon fill="lightyellow" stroke="black" points="310,-283 254,-283 254,-245 310,-245 310,-283"/>
<text text-anchor="middle" x="282" y="-267.8" font-family="Helvetica,sans-Serif" font-size="14.00">z</text>
<text text-anchor="middle" x="282" y="-252.8" font-family="Helvetica,sans-Serif" font-size="14.00">fa+fb</text>
</g>
<!-- root1&#45;&gt;leaf_z -->
<g id="edge1" class="edge">
<title>root1&#45;&gt;leaf_z</title>
<path fill="none" stroke="black" d="M282.76,-318.81C282.61,-307.98 282.41,-294.01 282.25,-283.02"/>
</g>
<!-- mid -->
<g id="node3" class="node">
<title>mid</title>
<text text-anchor="middle" x="407" y="-260.3" font-family="Helvetica,sans-Serif" font-size="14.00">splitLeaf t z z b fa fb</text>
</g>
<!-- root1&#45;&gt;mid -->
<!-- root2 -->
<g id="node4" class="node">
<title>root2</title>
<ellipse fill="none" stroke="black" cx="407" cy="-180" rx="27" ry="18"/>
<text text-anchor="middle" x="407" y="-176.3" font-family="Helvetica,sans-Serif" font-size="14.00">...</text>
</g>
<!-- mid&#45;&gt;root2 -->
<g id="edge6" class="edge">
<title>mid&#45;&gt;root2</title>
<path fill="none" stroke="black" stroke-dasharray="5,2" d="M407,-245.61C407,-234.77 407,-220.6 407,-208.29"/>
<polygon fill="black" stroke="black" points="407,-198.08 411.5,-208.08 407,-203.08 407,-208.08 407,-208.08 407,-208.08 407,-203.08 402.5,-208.08 407,-198.08 407,-198.08"/>
</g>
<!-- inner -->
<g id="node5" class="node">
<title>inner</title>
<ellipse fill="lightblue" stroke="black" cx="407" cy="-108" rx="18" ry="18"/>
<text text-anchor="middle" x="407" y="-104.3" font-family="Helvetica,sans-Serif" font-size="14.00">•</text>
</g>
<!-- root2&#45;&gt;inner -->
<g id="edge2" class="edge">
<title>root2&#45;&gt;inner</title>
<path fill="none" stroke="black" d="M407,-161.7C407,-150.85 407,-136.92 407,-126.1"/>
</g>
<!-- leaf_z2 -->
<g id="node6" class="node">
<title>leaf_z2</title>
<polygon fill="lightyellow" stroke="black" points="409,-54 355,-54 355,-16 409,-16 409,-54"/>
<text text-anchor="middle" x="382" y="-38.8" font-family="Helvetica,sans-Serif" font-size="14.00">z</text>
<text text-anchor="middle" x="382" y="-23.8" font-family="Helvetica,sans-Serif" font-size="14.00">fa</text>
</g>
<!-- inner&#45;&gt;leaf_z2 -->
<g id="edge3" class="edge">
<title>inner&#45;&gt;leaf_z2</title>
<path fill="none" stroke="black" d="M401.33,-90.89C397.47,-79.92 392.35,-65.4 388.35,-54.05"/>
</g>
<!-- leaf_b -->
<g id="node7" class="node">
<title>leaf_b</title>
<polygon fill="lightyellow" stroke="black" points="481,-54 427,-54 427,-16 481,-16 481,-54"/>
<text text-anchor="middle" x="454" y="-38.8" font-family="Helvetica,sans-Serif" font-size="14.00">b</text>
<text text-anchor="middle" x="454" y="-23.8" font-family="Helvetica,sans-Serif" font-size="14.00">fb</text>
</g>
<!-- inner&#45;&gt;leaf_b -->
<g id="edge4" class="edge">
<title>inner&#45;&gt;leaf_b</title>
<path fill="none" stroke="black" d="M416.51,-92.63C423.86,-81.53 434.08,-66.09 441.99,-54.14"/>
</g>
</g>
</svg>
