<?xml version="1.0" encoding="UTF-8" standalone="no"?>
<!DOCTYPE svg PUBLIC "-//W3C//DTD SVG 1.1//EN"
 "http://www.w3.org/Graphics/SVG/1.1/DTD/svg11.dtd">
<!-- Generated by graphviz version 2.43.0 (0)
 -->
<!-- Title: HuffmanV1 Pages: 1 -->
<svg width="739pt" height="298pt"
 viewBox="0.00 0.00 738.50 298.00" xmlns="http://www.w3.org/2000/svg" xmlns:xlink="http://www.w3.org/1999/xlink">
<g id="graph0" class="graph" transform="scale(1 1) rotate(0) translate(4 294)">
<title>HuffmanV1</title>
<polygon fill="white" stroke="transparent" points="-4,4 -4,-294 734.5,-294 734.5,4 -4,4"/>
<!-- Base -->
<g id="node1" class="node">
<title>Base</title>
<path fill="none" stroke="black" d="M496.5,-290C496.5,-290 275.5,-290 275.5,-290 269.5,-290 263.5,-284 263.5,-278 263.5,-278 263.5,-264 263.5,-264 263.5,-258 269.5,-252 275.5,-252 275.5,-252 496.5,-252 496.5,-252 502.5,-252 508.5,-258 508.5,-264 508.5,-264 508.5,-278 508.5,-278 508.5,-284 502.5,-290 496.5,-290"/>
<text text-anchor="middle" x="386" y="-274.8" font-family="Helvetica,sans-Serif" font-size="14.00">Base.lean</text>
<text text-anchor="middle" x="386" y="-259.8" font-family="Helvetica,sans-Serif" font-size="14.00">HuffTree / cost / huffman / 树手术</text>
</g>
<!-- SwapBasic -->
<g id="node2" class="node">
<title>SwapBasic</title>
<path fill="none" stroke="black" d="M150,-216C150,-216 12,-216 12,-216 6,-216 0,-210 0,-204 0,-204 0,-190 0,-190 0,-184 6,-178 12,-178 12,-178 150,-178 150,-178 156,-178 162,-184 162,-190 162,-190 162,-204 162,-204 162,-210 156,-216 150,-216"/>
<text text-anchor="middle" x="81" y="-200.8" font-family="Helvetica,sans-Serif" font-size="14.00">SwapBasic.lean</text>
<text text-anchor="middle" x="81" y="-185.8" font-family="Helvetica,sans-Serif" font-size="14.00">swapLeaves 基本性质</text>
</g>
<!-- Base&#45;&gt;SwapBasic -->
<g id="edge1" class="edge">
<title>Base&#45;&gt;SwapBasic</title>
<path fill="none" stroke="black" d="M309.43,-251.92C266.2,-241.72 212.05,-228.94 167.32,-218.38"/>
<polygon fill="black" stroke="black" points="157.34,-216.02 168.1,-213.94 162.2,-217.17 167.07,-218.32 167.07,-218.32 167.07,-218.32 162.2,-217.17 166.04,-222.7 157.34,-216.02 157.34,-216.02"/>
</g>
<!-- SwapFreqDepth -->
<g id="node3" class="node">
<title>SwapFreqDepth</title>
<path fill="none" stroke="black" d="M327.5,-216C327.5,-216 192.5,-216 192.5,-216 186.5,-216 180.5,-210 180.5,-204 180.5,-204 180.5,-190 180.5,-190 180.5,-184 186.5,-178 192.5,-178 192.5,-178 327.5,-178 327.5,-178 333.5,-178 339.5,-184 339.5,-190 339.5,-190 339.5,-204 339.5,-204 339.5,-210 333.5,-216 327.5,-216"/>
<text text-anchor="middle" x="260" y="-200.8" font-family="Helvetica,sans-Serif" font-size="14.00">SwapFreqDepth.lean</text>
<text text-anchor="middle" x="260" y="-185.8" font-family="Helvetica,sans-Serif" font-size="14.00">交换后的频率 / 深度</text>
</g>
<!-- Base&#45;&gt;SwapFreqDepth -->
<g id="edge2" class="edge">
<title>Base&#45;&gt;SwapFreqDepth</title>
<path fill="none" stroke="black" d="M354.2,-251.83C337.94,-242.54 317.96,-231.12 300.59,-221.2"/>
<polygon fill="black" stroke="black" points="291.78,-216.16 302.7,-217.22 296.13,-218.64 300.47,-221.12 300.47,-221.12 300.47,-221.12 296.13,-218.64 298.23,-225.03 291.78,-216.16 291.78,-216.16"/>
</g>
<!-- SwapDisjoint -->
<g id="node4" class="node">
<title>SwapDisjoint</title>
<path fill="none" stroke="black" d="M225.5,-142C225.5,-142 82.5,-142 82.5,-142 76.5,-142 70.5,-136 70.5,-130 70.5,-130 70.5,-101 70.5,-101 70.5,-95 76.5,-89 82.5,-89 82.5,-89 225.5,-89 225.5,-89 231.5,-89 237.5,-95 237.5,-101 237.5,-101 237.5,-130 237.5,-130 237.5,-136 231.5,-142 225.5,-142"/>
<text text-anchor="middle" x="154" y="-126.8" font-family="Helvetica,sans-Serif" font-size="14.00">SwapDisjoint.lean</text>
<text text-anchor="middle" x="154" y="-111.8" font-family="Helvetica,sans-Serif" font-size="14.00">交换保持一致性</text>
<text text-anchor="middle" x="154" y="-96.8" font-family="Helvetica,sans-Serif" font-size="14.00">cost_exchangeLeaf_le</text>
</g>
<!-- Base&#45;&gt;SwapDisjoint -->
<g id="edge3" class="edge">
<title>Base&#45;&gt;SwapDisjoint</title>
<path fill="none" stroke="black" d="M383.2,-251.82C379.06,-231.12 369.38,-197.64 348,-178 339.83,-170.5 293,-155.56 247.4,-142.28"/>
<polygon fill="black" stroke="black" points="237.71,-139.48 248.56,-137.93 242.51,-140.87 247.31,-142.26 247.31,-142.26 247.31,-142.26 242.51,-140.87 246.06,-146.58 237.71,-139.48 237.71,-139.48"/>
</g>
<!-- MergeLemmas -->
<g id="node5" class="node">
<title>MergeLemmas</title>
<path fill="none" stroke="black" d="M396,-134.5C396,-134.5 268,-134.5 268,-134.5 262,-134.5 256,-128.5 256,-122.5 256,-122.5 256,-108.5 256,-108.5 256,-102.5 262,-96.5 268,-96.5 268,-96.5 396,-96.5 396,-96.5 402,-96.5 408,-102.5 408,-108.5 408,-108.5 408,-122.5 408,-122.5 408,-128.5 402,-134.5 396,-134.5"/>
<text text-anchor="middle" x="332" y="-119.3" font-family="Helvetica,sans-Serif" font-size="14.00">MergeLemmas.lean</text>
<text text-anchor="middle" x="332" y="-104.3" font-family="Helvetica,sans-Serif" font-size="14.00">mergePair 代数</text>
</g>
<!-- Base&#45;&gt;MergeLemmas -->
<g id="edge4" class="edge">
<title>Base&#45;&gt;MergeLemmas</title>
<path fill="none" stroke="black" d="M388.2,-251.69C389.77,-232.63 390.21,-202.22 381,-178 376.06,-165.01 367.3,-152.63 358.54,-142.42"/>
<polygon fill="black" stroke="black" points="351.59,-134.74 361.63,-139.14 354.94,-138.45 358.3,-142.15 358.3,-142.15 358.3,-142.15 354.94,-138.45 354.96,-145.17 351.59,-134.74 351.59,-134.74"/>
</g>
<!-- Preservation -->
<g id="node6" class="node">
<title>Preservation</title>
<path fill="none" stroke="black" d="M608,-134.5C608,-134.5 438,-134.5 438,-134.5 432,-134.5 426,-128.5 426,-122.5 426,-122.5 426,-108.5 426,-108.5 426,-102.5 432,-96.5 438,-96.5 438,-96.5 608,-96.5 608,-96.5 614,-96.5 620,-102.5 620,-108.5 620,-108.5 620,-122.5 620,-122.5 620,-128.5 614,-134.5 608,-134.5"/>
<text text-anchor="middle" x="523" y="-119.3" font-family="Helvetica,sans-Serif" font-size="14.00">Preservation.lean</text>
<text text-anchor="middle" x="523" y="-104.3" font-family="Helvetica,sans-Serif" font-size="14.00">森林不变式 / Huffman 语义</text>
</g>
<!-- Base&#45;&gt;Preservation -->
<g id="edge5" class="edge">
<title>Base&#45;&gt;Preservation</title>
<path fill="none" stroke="black" d="M402.25,-251.79C426.46,-224.67 472.09,-173.54 499.8,-142.5"/>
<polygon fill="black" stroke="black" points="506.77,-134.69 503.47,-145.14 503.44,-138.42 500.11,-142.15 500.11,-142.15 500.11,-142.15 503.44,-138.42 496.75,-139.15 506.77,-134.69 506.77,-134.69"/>
</g>
<!-- Commutation -->
<g id="node7" class="node">
<title>Commutation</title>
<path fill="none" stroke="black" d="M718.5,-216C718.5,-216 539.5,-216 539.5,-216 533.5,-216 527.5,-210 527.5,-204 527.5,-204 527.5,-190 527.5,-190 527.5,-184 533.5,-178 539.5,-178 539.5,-178 718.5,-178 718.5,-178 724.5,-178 730.5,-184 730.5,-190 730.5,-190 730.5,-204 730.5,-204 730.5,-210 724.5,-216 718.5,-216"/>
<text text-anchor="middle" x="629" y="-200.8" font-family="Helvetica,sans-Serif" font-size="14.00">Commutation.lean</text>
<text text-anchor="middle" x="629" y="-185.8" font-family="Helvetica,sans-Serif" font-size="14.00">splitLeaf 与 huffman 交换律</text>
</g>
<!-- Base&#45;&gt;Commutation -->
<g id="edge6" class="edge">
<title>Base&#45;&gt;Commutation</title>
<path fill="none" stroke="black" d="M447.01,-251.92C480.8,-241.91 522.98,-229.41 558.23,-218.97"/>
<polygon fill="black" stroke="black" points="567.97,-216.08 559.66,-223.24 563.18,-217.5 558.38,-218.92 558.38,-218.92 558.38,-218.92 563.18,-217.5 557.1,-214.61 567.97,-216.08 567.97,-216.08"/>
</g>
<!-- SwapBasic&#45;&gt;SwapDisjoint -->
<g id="edge7" class="edge">
<title>SwapBasic&#45;&gt;SwapDisjoint</title>
<path fill="none" stroke="black" d="M97.56,-177.96C105.27,-169.57 114.67,-159.33 123.58,-149.62"/>
<polygon fill="black" stroke="black" points="130.58,-142 127.13,-152.41 127.2,-145.69 123.82,-149.37 123.82,-149.37 123.82,-149.37 127.2,-145.69 120.5,-146.33 130.58,-142 130.58,-142"/>
</g>
<!-- SwapFreqDepth&#45;&gt;SwapDisjoint -->
<g id="edge8" class="edge">
<title>SwapFreqDepth&#45;&gt;SwapDisjoint</title>
<path fill="none" stroke="black" d="M235.95,-177.96C224.21,-169.16 209.74,-158.31 196.25,-148.19"/>
<polygon fill="black" stroke="black" points="188,-142 198.7,-144.4 192,-145 196,-148 196,-148 196,-148 192,-145 193.3,-151.6 188,-142 188,-142"/>
</g>
<!-- Optimal -->
<g id="node8" class="node">
<title>Optimal</title>
<path fill="lightblue" stroke="black" d="M487,-53C487,-53 367,-53 367,-53 361,-53 355,-47 355,-41 355,-41 355,-12 355,-12 355,-6 361,0 367,0 367,0 487,0 487,0 493,0 499,-6 499,-12 499,-12 499,-41 499,-41 499,-47 493,-53 487,-53"/>
<text text-anchor="middle" x="427" y="-37.8" font-family="Helvetica,sans-Serif" font-size="14.00">Optimal.lean</text>
<text text-anchor="middle" x="427" y="-22.8" font-family="Helvetica,sans-Serif" font-size="14.00">optimum_splitLeaf</text>
<text text-anchor="middle" x="427" y="-7.8" font-family="Helvetica,sans-Serif" font-size="14.00">optimum_huffman</text>
</g>
<!-- SwapDisjoint&#45;&gt;Optimal -->
<g id="edge9" class="edge">
<title>SwapDisjoint&#45;&gt;Optimal</title>
<path fill="none" stroke="black" d="M234.06,-88.98C269.01,-77.85 309.95,-64.8 345.1,-53.6"/>
<polygon fill="black" stroke="black" points="354.85,-50.49 346.69,-57.82 350.09,-52.01 345.32,-53.53 345.32,-53.53 345.32,-53.53 350.09,-52.01 343.96,-49.24 354.85,-50.49 354.85,-50.49"/>
</g>
<!-- MergeLemmas&#45;&gt;Optimal -->
<g id="edge10" class="edge">
<title>MergeLemmas&#45;&gt;Optimal</title>
<path fill="none" stroke="black" d="M351.68,-96.47C363.13,-85.99 377.91,-72.46 391.34,-60.16"/>
<polygon fill="black" stroke="black" points="399.05,-53.09 394.72,-63.16 395.37,-56.47 391.68,-59.85 391.68,-59.85 391.68,-59.85 395.37,-56.47 388.64,-56.53 399.05,-53.09 399.05,-53.09"/>
</g>
<!-- Preservation&#45;&gt;Optimal -->
<g id="edge11" class="edge">
<title>Preservation&#45;&gt;Optimal</title>
<path fill="none" stroke="black" d="M503.11,-96.47C491.43,-85.89 476.33,-72.2 462.66,-59.81"/>
<polygon fill="black" stroke="black" points="455.24,-53.09 465.67,-56.47 458.94,-56.45 462.65,-59.81 462.65,-59.81 462.65,-59.81 458.94,-56.45 459.63,-63.14 455.24,-53.09 455.24,-53.09"/>
</g>
<!-- Commutation&#45;&gt;Optimal -->
<g id="edge12" class="edge">
<title>Commutation&#45;&gt;Optimal</title>
<path fill="none" stroke="black" d="M635.03,-177.69C641.41,-154.61 648.13,-114.82 629,-89 614.2,-69.02 558.36,-52.95 509.14,-42.25"/>
<polygon fill="black" stroke="black" points="499.07,-40.12 509.79,-37.79 503.97,-41.15 508.86,-42.19 508.86,-42.19 508.86,-42.19 503.97,-41.15 507.92,-46.59 499.07,-40.12 499.07,-40.12"/>
</g>
</g>
</svg>
