<?xml version="1.0" encoding="UTF-8" standalone="no"?>
<!DOCTYPE svg PUBLIC "-//W3C//DTD SVG 1.1//EN"
 "http://www.w3.org/Graphics/SVG/1.1/DTD/svg11.dtd">
<!-- Generated by graphviz version 15.0.0 (20260523.1842)
 -->
<!-- Title: LearnedISPResearchMap Pages: 1 -->
<svg width="656pt" height="600pt"
 viewBox="0.00 0.00 656.00 600.00" xmlns="http://www.w3.org/2000/svg" xmlns:xlink="http://www.w3.org/1999/xlink">
<g id="graph0" class="graph" transform="scale(1 1) rotate(0) translate(15.84 584.54)">
<title>LearnedISPResearchMap</title>
<g id="clust1" class="cluster">
<title>cluster_learned_isp</title>
<path fill="none" stroke="#7a8b99" stroke-width="1.2" stroke-dasharray="5,2" d="M20,-101.84C20,-101.84 604,-101.84 604,-101.84 610,-101.84 616,-107.84 616,-113.84 616,-113.84 616,-356.02 616,-356.02 616,-362.02 610,-368.02 604,-368.02 604,-368.02 20,-368.02 20,-368.02 14,-368.02 8,-362.02 8,-356.02 8,-356.02 8,-113.84 8,-113.84 8,-107.84 14,-101.84 20,-101.84"/>
<text xml:space="preserve" text-anchor="middle" x="312" y="-351.67" font-family="Arial Unicode MS" font-size="13.00" fill="#334155">Learned ISP design space: q(theta,A)(Y | R,u)</text>
</g>
<!-- scene&#45;&gt;raw -->
<g id="edge4" class="edge">
<title>scene&#45;&gt;raw</title>
<path fill="none" stroke="#475569" stroke-width="1.6" d="M149,-526.32C149,-510.87 149,-489.45 149,-472.05"/>
<polygon fill="#475569" stroke="#475569" stroke-width="1.6" points="151.63,-472.27 149,-464.77 146.38,-472.27 151.63,-472.27"/>
<text xml:space="preserve" text-anchor="middle" x="208.25" y="-495.41" font-family="Arial Unicode MS" font-size="11.00" fill="#334155">传感器似然 &#160;p( R | X,m )</text>
</g>
<!-- raw&#45;&gt;representation -->
<g id="edge5" class="edge">
<title>raw&#45;&gt;representation</title>
<path fill="none" stroke="#475569" stroke-width="1.6" d="M149,-419.33C149,-394.98 149,-354.25 149,-326.32"/>
<polygon fill="#475569" stroke="#475569" stroke-width="1.6" points="151.63,-326.59 149,-319.09 146.38,-326.59 151.63,-326.59"/>
<text xml:space="preserve" text-anchor="middle" x="202.62" y="-380.57" font-family="Arial Unicode MS" font-size="11.00" fill="#334155">后验恢复 &#160;q( S | R,m )</text>
</g>
<!-- obs_papers&#45;&gt;raw -->
<g id="edge7" class="edge">
<title>obs_papers&#45;&gt;raw</title>
<path fill="none" stroke="#8ab5d6" stroke-width="1.6" stroke-dasharray="5,2" d="M306.78,-440.94C294.76,-440.94 271.96,-440.94 254.68,-440.94"/>
</g>
<!-- representation&#45;&gt;output -->
<g id="edge1" class="edge">
<title>representation&#45;&gt;output</title>
<path fill="none" stroke="#475569" stroke-width="1.6" d="M149,-273.72C149,-252.66 149,-219.54 149,-195.48"/>
<polygon fill="#475569" stroke="#475569" stroke-width="1.6" points="151.63,-195.71 149,-188.21 146.38,-195.71 151.63,-195.71"/>
<text xml:space="preserve" text-anchor="middle" x="200.75" y="-234.73" font-family="Arial Unicode MS" font-size="11.00" fill="#334155">渲染决策 &#160;q( Y | S,u )</text>
</g>
<!-- restore_papers&#45;&gt;representation -->
<g id="edge2" class="edge">
<title>restore_papers&#45;&gt;representation</title>
<path fill="none" stroke="#86b795" stroke-width="1.6" stroke-dasharray="5,2" d="M344.76,-295.1C325.75,-295.1 263.97,-295.1 251.77,-295.1"/>
</g>
<!-- output&#45;&gt;consumer -->
<g id="edge6" class="edge">
<title>output&#45;&gt;consumer</title>
<path fill="none" stroke="#475569" stroke-width="1.6" d="M149,-142.93C149,-120.8 149,-85.4 149,-60.12"/>
<polygon fill="#475569" stroke="#475569" stroke-width="1.6" points="151.63,-60.23 149,-52.73 146.38,-60.23 151.63,-60.23"/>
<text xml:space="preserve" text-anchor="middle" x="184.25" y="-83.39" font-family="Arial Unicode MS" font-size="11.00" fill="#334155">任务头 &#160;G(tau)</text>
</g>
<!-- output_papers&#45;&gt;output -->
<g id="edge3" class="edge">
<title>output_papers&#45;&gt;output</title>
<path fill="none" stroke="#d3ae58" stroke-width="1.6" stroke-dasharray="5,2" d="M325,-164.51C307.93,-164.51 287.6,-164.51 272.96,-164.51"/>
</g>
<!-- task_papers&#45;&gt;consumer -->
<g id="edge8" class="edge">
<title>task_papers&#45;&gt;consumer</title>
<path fill="none" stroke="#d49aaa" stroke-width="1.6" stroke-dasharray="5,2" d="M285.74,-28.92C270.53,-28.92 246.61,-28.92 233.57,-28.92"/>
</g>
<!-- scene -->
<g id="node1" class="node">
<title>scene</title>
<path fill="#f1f5f9" stroke="#475569" stroke-width="1.4" d="M214.93,-568.7C214.93,-568.7 83.07,-568.7 83.07,-568.7 77.07,-568.7 71.08,-562.7 71.08,-556.7 71.08,-556.7 71.08,-538.86 71.08,-538.86 71.08,-532.86 77.08,-526.86 83.08,-526.86 83.08,-526.86 214.93,-526.86 214.93,-526.86 220.93,-526.86 226.93,-532.86 226.93,-538.86 226.93,-538.86 226.93,-556.7 226.93,-556.7 226.93,-562.7 220.93,-568.7 214.93,-568.7"/>
<text xml:space="preserve" text-anchor="start" x="105.88" y="-549.43" font-family="Arial Unicode MS" font-size="13.00" fill="#172033"> &#160;&#160;&#160;&#160;&#160;</text>
<text xml:space="preserve" text-anchor="start" x="128.38" y="-549.43" font-family="Arial Unicode MS" font-weight="bold" font-size="13.00" fill="#172033">潜在场景 X</text>
<text xml:space="preserve" text-anchor="start" x="81.88" y="-536.43" font-family="Arial Unicode MS" font-size="13.00" fill="#172033"> &#160;&#160;&#160;&#160;&#160;</text>
<text xml:space="preserve" text-anchor="start" x="104.38" y="-536.43" font-family="Arial Unicode MS" font-size="11.00" fill="#172033">辐照度 · 光谱 · 运动</text>
<text xml:space="preserve" text-anchor="start" x="201.12" y="-536.43" font-family="Arial Unicode MS" font-size="13.00" fill="#172033"> &#160;&#160;&#160;</text>
</g>
<!-- raw -->
<g id="node2" class="node">
<title>raw</title>
<path fill="#dceeff" stroke="#2f6fa3" stroke-width="1.4" d="M242.3,-461.86C242.3,-461.86 55.7,-461.86 55.7,-461.86 49.7,-461.86 43.7,-455.86 43.7,-449.86 43.7,-449.86 43.7,-432.02 43.7,-432.02 43.7,-426.02 49.7,-420.02 55.7,-420.02 55.7,-420.02 242.3,-420.02 242.3,-420.02 248.3,-420.02 254.3,-426.02 254.3,-432.02 254.3,-432.02 254.3,-449.86 254.3,-449.86 254.3,-455.86 248.3,-461.86 242.3,-461.86"/>
<text xml:space="preserve" text-anchor="start" x="101" y="-442.59" font-family="Arial Unicode MS" font-size="13.00" fill="#172033"> &#160;&#160;&#160;&#160;&#160;</text>
<text xml:space="preserve" text-anchor="start" x="123.5" y="-442.59" font-family="Arial Unicode MS" font-weight="bold" font-size="13.00" fill="#172033">RAW 观测 R</text>
<text xml:space="preserve" text-anchor="start" x="54.5" y="-429.59" font-family="Arial Unicode MS" font-size="13.00" fill="#172033"> &#160;&#160;&#160;&#160;&#160;</text>
<text xml:space="preserve" text-anchor="start" x="77" y="-429.59" font-family="Arial Unicode MS" font-size="11.00" fill="#172033">CFA · 噪声 · 曝光 · metadata m</text>
<text xml:space="preserve" text-anchor="start" x="228.5" y="-429.59" font-family="Arial Unicode MS" font-size="13.00" fill="#172033"> &#160;&#160;&#160;</text>
</g>
<!-- obs_papers -->
<g id="node3" class="node">
<title>obs_papers</title>
<polygon fill="#f4f9ff" stroke="#8ab5d6" stroke-width="1.4" points="482.68,-469.86 307.32,-469.86 307.32,-412.02 488.68,-412.02 488.68,-463.86 482.68,-469.86"/>
<polyline fill="none" stroke="#8ab5d6" stroke-width="1.4" points="482.68,-469.86 482.68,-463.86"/>
<polyline fill="none" stroke="#8ab5d6" stroke-width="1.4" points="488.68,-463.86 482.68,-463.86"/>
<text xml:space="preserve" text-anchor="start" x="318.12" y="-452.97" font-family="Arial Unicode MS" font-size="10.50" fill="#172033"> &#160;&#160;&#160;&#160;&#160;</text>
<text xml:space="preserve" text-anchor="start" x="336.12" y="-452.97" font-family="Arial Unicode MS" font-weight="bold" font-size="10.50" fill="#172033">观测、先验与训练数据</text>
<text xml:space="preserve" text-anchor="start" x="318.12" y="-442.47" font-family="Arial Unicode MS" font-size="10.50" fill="#172033"> &#160;&#160;&#160;&#160;&#160;FlexISP [1] · Khashabi [13&#45;15]</text>
<text xml:space="preserve" text-anchor="start" x="318.12" y="-431.97" font-family="Arial Unicode MS" font-size="10.50" fill="#172033"> &#160;&#160;&#160;&#160;&#160;Unprocessing / CycleISP [8,9]</text>
<text xml:space="preserve" text-anchor="start" x="348.12" y="-421.47" font-family="Arial Unicode MS" font-size="10.50" fill="#172033"> &#160;&#160;&#160;&#160;&#160;RAW prior [24] &#160;&#160;&#160;</text>
</g>
<!-- representation -->
<g id="node4" class="node">
<title>representation</title>
<path fill="#e2f4e8" stroke="#3e8055" stroke-width="1.4" d="M239.3,-316.02C239.3,-316.02 58.7,-316.02 58.7,-316.02 52.7,-316.02 46.7,-310.02 46.7,-304.02 46.7,-304.02 46.7,-286.18 46.7,-286.18 46.7,-280.18 52.7,-274.18 58.7,-274.18 58.7,-274.18 239.3,-274.18 239.3,-274.18 245.3,-274.18 251.3,-280.18 251.3,-286.18 251.3,-286.18 251.3,-304.02 251.3,-304.02 251.3,-310.02 245.3,-316.02 239.3,-316.02"/>
<text xml:space="preserve" text-anchor="start" x="92.38" y="-296.75" font-family="Arial Unicode MS" font-size="13.00" fill="#172033"> &#160;&#160;&#160;&#160;&#160;&#160;&#160;</text>
<text xml:space="preserve" text-anchor="start" x="122.38" y="-296.75" font-family="Arial Unicode MS" font-weight="bold" font-size="13.00" fill="#172033">恢复表示 S / Z</text>
<text xml:space="preserve" text-anchor="start" x="57.5" y="-283.75" font-family="Arial Unicode MS" font-size="13.00" fill="#172033"> &#160;&#160;&#160;&#160;&#160;&#160;&#160;</text>
<text xml:space="preserve" text-anchor="start" x="87.5" y="-283.75" font-family="Arial Unicode MS" font-size="11.00" fill="#172033">去噪 · 去马赛克 · 线性颜色</text>
<text xml:space="preserve" text-anchor="start" x="218" y="-283.75" font-family="Arial Unicode MS" font-size="13.00" fill="#172033"> &#160;&#160;&#160;&#160;&#160;</text>
</g>
<!-- restore_papers -->
<g id="node5" class="node">
<title>restore_papers</title>
<polygon fill="#f2faf4" stroke="#86b795" stroke-width="1.4" points="550.67,-324.02 345.32,-324.02 345.32,-266.18 556.67,-266.18 556.67,-318.02 550.67,-324.02"/>
<polyline fill="none" stroke="#86b795" stroke-width="1.4" points="550.67,-324.02 550.67,-318.02"/>
<polyline fill="none" stroke="#86b795" stroke-width="1.4" points="556.67,-318.02 550.67,-318.02"/>
<text xml:space="preserve" text-anchor="start" x="356.12" y="-307.12" font-family="Arial Unicode MS" font-size="10.50" fill="#172033"> &#160;&#160;&#160;&#160;&#160;&#160;&#160;</text>
<text xml:space="preserve" text-anchor="start" x="380.12" y="-307.12" font-family="Arial Unicode MS" font-weight="bold" font-size="10.50" fill="#172033">恢复器、空间算子与隐式先验</text>
<text xml:space="preserve" text-anchor="start" x="356.12" y="-296.62" font-family="Arial Unicode MS" font-size="10.50" fill="#172033"> &#160;&#160;&#160;&#160;&#160;&#160;&#160;Deep Joint [2] · SID / LSID [4]</text>
<text xml:space="preserve" text-anchor="start" x="356.12" y="-286.12" font-family="Arial Unicode MS" font-size="10.50" fill="#172033"> &#160;&#160;&#160;&#160;&#160;&#160;&#160;PnP / RED / DIP [16&#45;20]</text>
<text xml:space="preserve" text-anchor="start" x="356.12" y="-275.62" font-family="Arial Unicode MS" font-size="10.50" fill="#172033"> &#160;&#160;&#160;&#160;&#160;&#160;&#160;U&#45;Net / Transformer [11,27&#45;29] &#160;&#160;&#160;&#160;&#160;</text>
</g>
<!-- output -->
<g id="node6" class="node">
<title>output</title>
<path fill="#fff0c9" stroke="#a36b10" stroke-width="1.4" d="M260.3,-185.43C260.3,-185.43 37.7,-185.43 37.7,-185.43 31.7,-185.43 25.7,-179.43 25.7,-173.43 25.7,-173.43 25.7,-155.59 25.7,-155.59 25.7,-149.59 31.7,-143.59 37.7,-143.59 37.7,-143.59 260.3,-143.59 260.3,-143.59 266.3,-143.59 272.3,-149.59 272.3,-155.59 272.3,-155.59 272.3,-173.43 272.3,-173.43 272.3,-179.43 266.3,-185.43 260.3,-185.43"/>
<text xml:space="preserve" text-anchor="start" x="81.5" y="-166.16" font-family="Arial Unicode MS" font-size="13.00" fill="#172033"> &#160;&#160;&#160;&#160;&#160;&#160;&#160;</text>
<text xml:space="preserve" text-anchor="start" x="111.5" y="-166.16" font-family="Arial Unicode MS" font-weight="bold" font-size="13.00" fill="#172033">输出 Ŷ 或 q(Y | R)</text>
<text xml:space="preserve" text-anchor="start" x="36.5" y="-153.16" font-family="Arial Unicode MS" font-size="13.00" fill="#172033"> &#160;&#160;&#160;&#160;&#160;&#160;&#160;</text>
<text xml:space="preserve" text-anchor="start" x="66.5" y="-153.16" font-family="Arial Unicode MS" font-size="11.00" fill="#172033">tone · color · style · posterior sample</text>
<text xml:space="preserve" text-anchor="start" x="239" y="-153.16" font-family="Arial Unicode MS" font-size="13.00" fill="#172033"> &#160;&#160;&#160;&#160;&#160;</text>
</g>
<!-- output_papers -->
<g id="node7" class="node">
<title>output_papers</title>
<polygon fill="#fff9e9" stroke="#d3ae58" stroke-width="1.4" points="592.42,-209.18 325.57,-209.18 325.57,-119.84 598.42,-119.84 598.42,-203.18 592.42,-209.18"/>
<polyline fill="none" stroke="#d3ae58" stroke-width="1.4" points="592.42,-209.18 592.42,-203.18"/>
<polyline fill="none" stroke="#d3ae58" stroke-width="1.4" points="598.42,-203.18 592.42,-203.18"/>
<text xml:space="preserve" text-anchor="start" x="336.38" y="-192.28" font-family="Arial Unicode MS" font-size="10.50" fill="#172033"> &#160;&#160;&#160;&#160;&#160;&#160;&#160;</text>
<text xml:space="preserve" text-anchor="start" x="360.38" y="-192.28" font-family="Arial Unicode MS" font-weight="bold" font-size="10.50" fill="#172033">渲染、结构与条件分布</text>
<text xml:space="preserve" text-anchor="start" x="336.38" y="-181.78" font-family="Arial Unicode MS" font-size="10.50" fill="#172033"> &#160;&#160;&#160;&#160;&#160;&#160;&#160;DeepISP / PyNET [3,5] · Controllable [12]</text>
<text xml:space="preserve" text-anchor="start" x="336.38" y="-171.28" font-family="Arial Unicode MS" font-size="10.50" fill="#172033"> &#160;&#160;&#160;&#160;&#160;&#160;&#160;CameraNet / ReconfigISP [6,7]</text>
<text xml:space="preserve" text-anchor="start" x="336.38" y="-160.78" font-family="Arial Unicode MS" font-size="10.50" fill="#172033"> &#160;&#160;&#160;&#160;&#160;&#160;&#160;InvISP / Learnable Dictionary [10,21]</text>
<text xml:space="preserve" text-anchor="start" x="336.38" y="-150.28" font-family="Arial Unicode MS" font-size="10.50" fill="#172033"> &#160;&#160;&#160;&#160;&#160;&#160;&#160;Diffusion / DPS / Flow [30&#45;36]</text>
<text xml:space="preserve" text-anchor="start" x="336.38" y="-139.78" font-family="Arial Unicode MS" font-size="10.50" fill="#172033"> &#160;&#160;&#160;&#160;&#160;&#160;&#160;ISPDiffuser / RAW&#45;Diffusion / RAW&#45;Flow [37&#45;39]</text>
<text xml:space="preserve" text-anchor="start" x="339.38" y="-129.28" font-family="Arial Unicode MS" font-size="10.50" fill="#172033"> &#160;&#160;&#160;&#160;&#160;&#160;&#160;</text>
<text xml:space="preserve" text-anchor="start" x="363.38" y="-129.28" font-family="Arial Unicode MS" font-size="10.50" fill="#a44962">reverse ISP 建模 p( R | Y ), 返回 RAW 空间</text>
<text xml:space="preserve" text-anchor="start" x="566.62" y="-129.28" font-family="Arial Unicode MS" font-size="10.50" fill="#172033"> &#160;&#160;&#160;&#160;&#160;</text>
</g>
<!-- consumer -->
<g id="node8" class="node">
<title>consumer</title>
<path fill="#f7e3e8" stroke="#a44962" stroke-width="1.4" d="M220.93,-49.84C220.93,-49.84 77.07,-49.84 77.07,-49.84 71.07,-49.84 65.08,-43.84 65.08,-37.84 65.08,-37.84 65.08,-20 65.08,-20 65.08,-14 71.08,-8 77.08,-8 77.08,-8 220.93,-8 220.93,-8 226.93,-8 232.93,-14 232.93,-20 232.93,-20 232.93,-37.84 232.93,-37.84 232.93,-43.84 226.93,-49.84 220.93,-49.84"/>
<text xml:space="preserve" text-anchor="start" x="93.88" y="-30.57" font-family="Arial Unicode MS" font-size="13.00" fill="#172033"> &#160;&#160;&#160;&#160;&#160;</text>
<text xml:space="preserve" text-anchor="start" x="116.38" y="-30.57" font-family="Arial Unicode MS" font-weight="bold" font-size="13.00" fill="#172033">观看 / 下游任务</text>
<text xml:space="preserve" text-anchor="start" x="75.88" y="-17.57" font-family="Arial Unicode MS" font-size="13.00" fill="#172033"> &#160;&#160;&#160;&#160;&#160;</text>
<text xml:space="preserve" text-anchor="start" x="98.38" y="-17.57" font-family="Arial Unicode MS" font-size="11.00" fill="#172033">显示 · 检测 · 分割 · 3D</text>
<text xml:space="preserve" text-anchor="start" x="207.12" y="-17.57" font-family="Arial Unicode MS" font-size="13.00" fill="#172033"> &#160;&#160;&#160;</text>
</g>
<!-- task_papers -->
<g id="node9" class="node">
<title>task_papers</title>
<polygon fill="#fff4f6" stroke="#d49aaa" stroke-width="1.4" points="457.8,-57.84 286.2,-57.84 286.2,0 463.8,0 463.8,-51.84 457.8,-57.84"/>
<polyline fill="none" stroke="#d49aaa" stroke-width="1.4" points="457.8,-57.84 457.8,-51.84"/>
<polyline fill="none" stroke="#d49aaa" stroke-width="1.4" points="463.8,-51.84 457.8,-51.84"/>
<text xml:space="preserve" text-anchor="start" x="297" y="-40.95" font-family="Arial Unicode MS" font-size="10.50" fill="#172033"> &#160;&#160;&#160;&#160;&#160;</text>
<text xml:space="preserve" text-anchor="start" x="315" y="-40.95" font-family="Arial Unicode MS" font-weight="bold" font-size="10.50" fill="#172033">目标风险与系统成本</text>
<text xml:space="preserve" text-anchor="start" x="297" y="-30.45" font-family="Arial Unicode MS" font-size="10.50" fill="#172033"> &#160;&#160;&#160;&#160;&#160;VisionISP / ISP4ML [22,23]</text>
<text xml:space="preserve" text-anchor="start" x="297" y="-19.95" font-family="Arial Unicode MS" font-size="10.50" fill="#172033"> &#160;&#160;&#160;&#160;&#160;Hardware&#45;in&#45;the&#45;loop [25]</text>
<text xml:space="preserve" text-anchor="start" x="297" y="-9.45" font-family="Arial Unicode MS" font-size="10.50" fill="#172033"> &#160;&#160;&#160;&#160;&#160;Neural Auto&#45;Exposure [26] &#160;&#160;&#160;</text>
</g>
</g>
</svg>
